<svg width="127" height="44" viewBox="0 0 127 44" fill="none" xmlns="http://www.w3.org/2000/svg">
<rect x="6" y="4" width="121" height="32" rx="16" fill="#D9D9D9"/>
<g filter="url(#filter0_d_15602_33888)">
<circle cx="22" cy="20" r="17" fill="#606060"/>
</g>
<path d="M44.518 20.114C44.518 17.202 46.744 15.144 49.488 15.144C51.518 15.144 53.268 16.166 54.01 18.07H52.092C51.574 17.034 50.65 16.544 49.488 16.544C47.556 16.544 46.156 17.916 46.156 20.114C46.156 22.312 47.556 23.698 49.488 23.698C50.65 23.698 51.574 23.208 52.092 22.172H54.01C53.268 24.076 51.518 25.084 49.488 25.084C46.744 25.084 44.518 23.04 44.518 20.114ZM55.3461 21.108C55.3461 18.728 56.9561 17.16 58.9861 17.16C60.2881 17.16 61.1841 17.776 61.6601 18.406V17.286H63.2701V25H61.6601V23.852C61.1701 24.51 60.2461 25.126 58.9581 25.126C56.9561 25.126 55.3461 23.488 55.3461 21.108ZM61.6601 21.136C61.6601 19.484 60.5261 18.546 59.3221 18.546C58.1321 18.546 56.9841 19.442 56.9841 21.108C56.9841 22.774 58.1321 23.74 59.3221 23.74C60.5261 23.74 61.6601 22.802 61.6601 21.136ZM76.3004 25V20.688C76.3004 19.274 75.5304 18.546 74.3684 18.546C73.1924 18.546 72.4224 19.274 72.4224 20.688V25H70.8404V20.688C70.8404 19.274 70.0704 18.546 68.9084 18.546C67.7324 18.546 66.9624 19.274 66.9624 20.688V25H65.3664V17.286H66.9624V18.168C67.4804 17.538 68.3204 17.16 69.2444 17.16C70.4624 17.16 71.4844 17.678 72.0164 18.686C72.4924 17.748 73.5844 17.16 74.7044 17.16C76.5104 17.16 77.8824 18.294 77.8824 20.45V25H76.3004ZM83.1613 18.504C82.0833 18.504 81.2153 19.232 81.0473 20.45H85.3173C85.2893 19.26 84.3513 18.504 83.1613 18.504ZM86.7733 22.704C86.3393 24.048 85.1213 25.126 83.2313 25.126C81.0193 25.126 79.3813 23.558 79.3813 21.136C79.3813 18.714 80.9493 17.16 83.2313 17.16C85.4293 17.16 86.9833 18.686 86.9833 20.954C86.9833 21.22 86.9693 21.472 86.9273 21.738H81.0333C81.1453 23.012 82.0553 23.782 83.2313 23.782C84.2113 23.782 84.7573 23.306 85.0513 22.704H86.7733ZM90.1499 20.94V25H88.5539V17.286H90.1499V18.406C90.5979 17.636 91.3679 17.16 92.4599 17.16V18.812H92.0539C90.8779 18.812 90.1499 19.302 90.1499 20.94ZM93.395 21.108C93.395 18.728 95.005 17.16 97.035 17.16C98.337 17.16 99.233 17.776 99.709 18.406V17.286H101.319V25H99.709V23.852C99.219 24.51 98.295 25.126 97.007 25.126C95.005 25.126 93.395 23.488 93.395 21.108ZM99.709 21.136C99.709 19.484 98.575 18.546 97.371 18.546C96.181 18.546 95.033 19.442 95.033 21.108C95.033 22.774 96.181 23.74 97.371 23.74C98.575 23.74 99.709 22.802 99.709 21.136Z" fill="#222222"/>
<path fill-rule="evenodd" clip-rule="evenodd" d="M20.4314 13.3714C20.2922 13.3714 20.1506 13.4097 20.0182 13.4894C19.8852 13.5695 19.7631 13.6905 19.6691 13.8489L19.0094 14.964C18.8065 15.3062 18.526 15.5962 18.1873 15.8C17.8479 16.0042 17.4628 16.1143 17.0669 16.1143H16.3111C16.0897 16.1143 15.8584 16.2125 15.6743 16.4197C15.4878 16.6295 15.3714 16.9297 15.3714 17.2571V25.4857C15.3714 25.8132 15.4878 26.1133 15.6743 26.3231C15.8584 26.5303 16.0897 26.6286 16.3111 26.6286H27.6889C27.9103 26.6286 28.1416 26.5303 28.3257 26.3231C28.5122 26.1133 28.6286 25.8132 28.6286 25.4857V17.2571C28.6286 16.9297 28.5122 16.6295 28.3257 16.4197C28.1416 16.2125 27.9103 16.1143 27.6889 16.1143H26.9332C26.5373 16.1143 26.1521 16.0042 25.8127 15.8C25.474 15.5962 25.1939 15.3068 24.991 14.9646L24.331 13.8492C24.237 13.6907 24.1149 13.5695 23.9818 13.4894C23.8494 13.4097 23.7078 13.3714 23.5686 13.3714H20.4314ZM20.4315 12C20.0356 12 19.6505 12.1101 19.3111 12.3143C18.9724 12.5181 18.6923 12.8075 18.4894 13.1496L17.8295 14.2651C17.7355 14.4235 17.6133 14.5448 17.4802 14.6249C17.3478 14.7045 17.2062 14.7429 17.067 14.7429H16.3111C15.6704 14.7429 15.0748 15.0299 14.6493 15.5086C14.2261 15.9846 14 16.6147 14 17.2571V25.4857C14 26.1282 14.2261 26.7582 14.6493 27.2343C15.0748 27.7129 15.6704 28 16.3111 28H27.6889C28.3296 28 28.9252 27.7129 29.3507 27.2343C29.7739 26.7582 30 26.1282 30 25.4857V17.2571C30 16.6147 29.7739 15.9846 29.3507 15.5086C28.9252 15.0299 28.3296 14.7429 27.6889 14.7429H26.9331C26.7939 14.7429 26.6522 14.7045 26.5198 14.6249C26.3868 14.5449 26.2648 14.4239 26.1708 14.2656L25.511 13.1503C25.3081 12.8081 25.0276 12.5181 24.6889 12.3143C24.3495 12.1101 23.9644 12 23.5685 12H20.4315Z" fill="white"/>
<path fill-rule="evenodd" clip-rule="evenodd" d="M22 18.8571C21.4544 18.8571 20.9312 19.0739 20.5454 19.4597C20.1596 19.8455 19.9429 20.3687 19.9429 20.9143C19.9429 21.4599 20.1596 21.9831 20.5454 22.3689C20.9312 22.7547 21.4544 22.9714 22 22.9714C22.5456 22.9714 23.0688 22.7547 23.4546 22.3689C23.8404 21.9831 24.0571 21.4599 24.0571 20.9143C24.0571 20.3687 23.8404 19.8455 23.4546 19.4597C23.0688 19.0739 22.5456 18.8571 22 18.8571ZM19.5756 18.4899C20.2186 17.8469 21.0907 17.4857 22 17.4857C22.9093 17.4857 23.7814 17.8469 24.4244 18.4899C25.0673 19.1329 25.4286 20.005 25.4286 20.9143C25.4286 21.8236 25.0673 22.6957 24.4244 23.3387C23.7814 23.9816 22.9093 24.3429 22 24.3429C21.0907 24.3429 20.2186 23.9816 19.5756 23.3387C18.9327 22.6957 18.5714 21.8236 18.5714 20.9143C18.5714 20.005 18.9327 19.1329 19.5756 18.4899Z" fill="white"/>
<defs>
<filter id="filter0_d_15602_33888" x="0" y="0" width="44" height="44" filterUnits="userSpaceOnUse" color-interpolation-filters="sRGB">
<feFlood flood-opacity="0" result="BackgroundImageFix"/>
<feColorMatrix in="SourceAlpha" type="matrix" values="0 0 0 0 0 0 0 0 0 0 0 0 0 0 0 0 0 0 127 0" result="hardAlpha"/>
<feOffset dy="2"/>
<feGaussianBlur stdDeviation="2.5"/>
<feColorMatrix type="matrix" values="0 0 0 0 0 0 0 0 0 0 0 0 0 0 0 0 0 0 0.15 0"/>
<feBlend mode="normal" in2="BackgroundImageFix" result="effect1_dropShadow_15602_33888"/>
<feBlend mode="normal" in="SourceGraphic" in2="effect1_dropShadow_15602_33888" result="shape"/>
</filter>
</defs>
</svg>
