<svg width="128" height="44" viewBox="0 0 128 44" fill="none" xmlns="http://www.w3.org/2000/svg">
<rect x="6" y="4" width="122" height="32" rx="16" fill="#FFE5B2"/>
<g filter="url(#filter0_d_15602_33908)">
<circle cx="22" cy="20" r="17" fill="#FFBA33"/>
</g>
<path d="M45.05 15.27H46.646V23.712H49.936V25H45.05V15.27ZM58.6207 21.136C58.6207 23.558 56.8287 25.126 54.6167 25.126C52.4187 25.126 50.7527 23.558 50.7527 21.136C50.7527 18.714 52.4887 17.16 54.6867 17.16C56.8847 17.16 58.6207 18.714 58.6207 21.136ZM52.3767 21.136C52.3767 22.886 53.4127 23.74 54.6167 23.74C55.8067 23.74 56.9827 22.886 56.9827 21.136C56.9827 19.386 55.8487 18.546 54.6587 18.546C53.4547 18.546 52.3767 19.386 52.3767 21.136ZM59.6664 21.136C59.6664 18.728 61.2344 17.16 63.4464 17.16C65.3364 17.16 66.5684 18.098 67.0024 19.722H65.2804C65.0144 18.98 64.3984 18.504 63.4464 18.504C62.1584 18.504 61.3044 19.456 61.3044 21.136C61.3044 22.83 62.1584 23.782 63.4464 23.782C64.3984 23.782 64.9864 23.362 65.2804 22.564H67.0024C66.5684 24.076 65.3364 25.126 63.4464 25.126C61.2344 25.126 59.6664 23.558 59.6664 21.136ZM68.061 21.108C68.061 18.728 69.671 17.16 71.701 17.16C73.003 17.16 73.899 17.776 74.375 18.406V17.286H75.985V25H74.375V23.852C73.885 24.51 72.961 25.126 71.673 25.126C69.671 25.126 68.061 23.488 68.061 21.108ZM74.375 21.136C74.375 19.484 73.241 18.546 72.037 18.546C70.847 18.546 69.699 19.442 69.699 21.108C69.699 22.774 70.847 23.74 72.037 23.74C73.241 23.74 74.375 22.802 74.375 21.136ZM78.3333 22.858V18.588H77.4233V17.286H78.3333V15.368H79.9433V17.286H81.8193V18.588H79.9433V22.858C79.9433 23.432 80.1673 23.67 80.8393 23.67H81.8193V25H80.5593C79.1873 25 78.3333 24.426 78.3333 22.858ZM83.2902 25V17.286H84.8862V25H83.2902ZM84.1022 16.264C83.5282 16.264 83.0802 15.816 83.0802 15.242C83.0802 14.668 83.5282 14.22 84.1022 14.22C84.6622 14.22 85.1102 14.668 85.1102 15.242C85.1102 15.816 84.6622 16.264 84.1022 16.264ZM94.3316 21.136C94.3316 23.558 92.5396 25.126 90.3276 25.126C88.1296 25.126 86.4636 23.558 86.4636 21.136C86.4636 18.714 88.1996 17.16 90.3976 17.16C92.5956 17.16 94.3316 18.714 94.3316 21.136ZM88.0876 21.136C88.0876 22.886 89.1236 23.74 90.3276 23.74C91.5176 23.74 92.6936 22.886 92.6936 21.136C92.6936 19.386 91.5596 18.546 90.3696 18.546C89.1656 18.546 88.0876 19.386 88.0876 21.136ZM101.383 25V20.688C101.383 19.274 100.613 18.546 99.4514 18.546C98.2754 18.546 97.5054 19.274 97.5054 20.688V25H95.9094V17.286H97.5054V18.168C98.0234 17.538 98.8774 17.16 99.8014 17.16C101.607 17.16 102.965 18.294 102.965 20.45V25H101.383Z" fill="#222222"/>
<path fill-rule="evenodd" clip-rule="evenodd" d="M22 26.3479L21.8681 26.2192C20.2882 24.6773 19.1088 23.2694 18.3364 21.9958C17.5658 20.7253 17.1667 19.5755 17.1667 18.5522C17.1667 17.0151 17.6291 15.7412 18.5639 14.7474C19.4964 13.7561 20.6457 13.2582 22 13.2582C23.3543 13.2582 24.5036 13.7561 25.4361 14.7474C26.3709 15.7412 26.8333 17.0151 26.8333 18.5522C26.8333 19.5755 26.4342 20.7253 25.6636 21.9958C24.8912 23.2694 23.7118 24.6773 22.1319 26.2192L22 26.3479ZM22 22.3074C22.6877 22.3074 23.3031 22.1285 23.8513 21.7723C24.3609 21.4412 24.7709 21.0138 25.0826 20.4883C24.6791 20.1557 24.2296 19.8966 23.7332 19.7108C23.1878 19.5065 22.6105 19.4039 22 19.4039C21.3895 19.4039 20.8122 19.5065 20.2668 19.7108C19.7704 19.8966 19.3209 20.1557 18.9174 20.4883C19.2291 21.0138 19.6391 21.4412 20.1487 21.7723C20.6969 22.1285 21.3123 22.3074 22 22.3074ZM22 18.1941C22.3718 18.1941 22.6869 18.056 22.9553 17.7706C23.2239 17.485 23.3571 17.1459 23.3571 16.7424C23.3571 16.3389 23.2239 15.9997 22.9553 15.7141C22.6869 15.4288 22.3718 15.2906 22 15.2906C21.6282 15.2906 21.3131 15.4288 21.0447 15.7141C20.7761 15.9997 20.6429 16.3389 20.6429 16.7424C20.6429 17.1459 20.7761 17.485 21.0447 17.7706C21.3131 18.056 21.6282 18.1941 22 18.1941ZM17.5074 22.9203C18.4994 24.479 19.9948 26.1723 22 28C24.0052 26.1723 25.5006 24.479 26.4926 22.9203C27.5056 21.3286 28 19.8739 28 18.5522C28 16.5384 27.3924 14.9537 26.1914 13.7761C24.9802 12.5885 23.5856 12 22 12C20.4144 12 19.0198 12.5885 17.8086 13.7761C16.6076 14.9537 16 16.5384 16 18.5522C16 19.8739 16.4944 21.3286 17.5074 22.9203Z" fill="white"/>
<defs>
<filter id="filter0_d_15602_33908" x="0" y="0" width="44" height="44" filterUnits="userSpaceOnUse" color-interpolation-filters="sRGB">
<feFlood flood-opacity="0" result="BackgroundImageFix"/>
<feColorMatrix in="SourceAlpha" type="matrix" values="0 0 0 0 0 0 0 0 0 0 0 0 0 0 0 0 0 0 127 0" result="hardAlpha"/>
<feOffset dy="2"/>
<feGaussianBlur stdDeviation="2.5"/>
<feColorMatrix type="matrix" values="0 0 0 0 0 0 0 0 0 0 0 0 0 0 0 0 0 0 0.15 0"/>
<feBlend mode="normal" in2="BackgroundImageFix" result="effect1_dropShadow_15602_33908"/>
<feBlend mode="normal" in="SourceGraphic" in2="effect1_dropShadow_15602_33908" result="shape"/>
</filter>
</defs>
</svg>
