<svg width="142" height="44" viewBox="0 0 142 44" fill="none" xmlns="http://www.w3.org/2000/svg">
<rect x="6" y="4" width="136" height="32" rx="16" fill="#ADEBE7"/>
<g filter="url(#filter0_d_15602_33903)">
<circle cx="22" cy="20" r="17" fill="#5BD7CF"/>
</g>
<path d="M48.228 15.27C51.35 15.27 53.394 17.16 53.394 20.17C53.394 23.166 51.35 25 48.228 25H45.05V15.27H48.228ZM46.646 23.698H48.228C50.524 23.698 51.756 22.382 51.756 20.17C51.756 17.944 50.524 16.572 48.228 16.572H46.646V23.698ZM62.3258 21.136C62.3258 23.558 60.5338 25.126 58.3218 25.126C56.1238 25.126 54.4578 23.558 54.4578 21.136C54.4578 18.714 56.1938 17.16 58.3918 17.16C60.5898 17.16 62.3258 18.714 62.3258 21.136ZM56.0818 21.136C56.0818 22.886 57.1178 23.74 58.3218 23.74C59.5118 23.74 60.6878 22.886 60.6878 21.136C60.6878 19.386 59.5538 18.546 58.3638 18.546C57.1598 18.546 56.0818 19.386 56.0818 21.136ZM63.3715 21.136C63.3715 18.728 64.9395 17.16 67.1515 17.16C69.0415 17.16 70.2735 18.098 70.7075 19.722H68.9855C68.7195 18.98 68.1035 18.504 67.1515 18.504C65.8635 18.504 65.0095 19.456 65.0095 21.136C65.0095 22.83 65.8635 23.782 67.1515 23.782C68.1035 23.782 68.6915 23.362 68.9855 22.564H70.7075C70.2735 24.076 69.0415 25.126 67.1515 25.126C64.9395 25.126 63.3715 23.558 63.3715 21.136ZM79.284 17.286V25H77.688V24.076C77.184 24.734 76.316 25.112 75.406 25.112C73.6 25.112 72.228 23.978 72.228 21.822V17.286H73.81V21.584C73.81 22.998 74.58 23.726 75.742 23.726C76.918 23.726 77.688 22.998 77.688 21.584V17.286H79.284ZM92.3238 25V20.688C92.3238 19.274 91.5538 18.546 90.3918 18.546C89.2158 18.546 88.4458 19.274 88.4458 20.688V25H86.8638V20.688C86.8638 19.274 86.0938 18.546 84.9318 18.546C83.7558 18.546 82.9858 19.274 82.9858 20.688V25H81.3898V17.286H82.9858V18.168C83.5038 17.538 84.3438 17.16 85.2678 17.16C86.4858 17.16 87.5078 17.678 88.0398 18.686C88.5158 17.748 89.6078 17.16 90.7278 17.16C92.5338 17.16 93.9058 18.294 93.9058 20.45V25H92.3238ZM99.1847 18.504C98.1067 18.504 97.2387 19.232 97.0707 20.45H101.341C101.313 19.26 100.375 18.504 99.1847 18.504ZM102.797 22.704C102.363 24.048 101.145 25.126 99.2547 25.126C97.0427 25.126 95.4047 23.558 95.4047 21.136C95.4047 18.714 96.9727 17.16 99.2547 17.16C101.453 17.16 103.007 18.686 103.007 20.954C103.007 21.22 102.993 21.472 102.951 21.738H97.0567C97.1687 23.012 98.0787 23.782 99.2547 23.782C100.235 23.782 100.781 23.306 101.075 22.704H102.797ZM110.051 25V20.688C110.051 19.274 109.281 18.546 108.119 18.546C106.943 18.546 106.173 19.274 106.173 20.688V25H104.577V17.286H106.173V18.168C106.691 17.538 107.545 17.16 108.469 17.16C110.275 17.16 111.633 18.294 111.633 20.45V25H110.051ZM113.921 22.858V18.588H113.011V17.286H113.921V15.368H115.531V17.286H117.407V18.588H115.531V22.858C115.531 23.432 115.755 23.67 116.427 23.67H117.407V25H116.147C114.775 25 113.921 24.426 113.921 22.858Z" fill="#222222"/>
<path fill-rule="evenodd" clip-rule="evenodd" d="M16 15.265C16 13.4618 17.4618 12 19.265 12H22.6885L28 16.9V24.735C28 26.5382 26.5382 28 24.735 28H19.265C17.4618 28 16 26.5382 16 24.735V15.265ZM27.6153 16.8508L22.8195 12.4975C22.6928 12.3824 22.4918 12.4739 22.4918 12.6467V17C22.4918 17.1104 22.5799 17.2 22.6885 17.2H27.4843C27.665 17.2 27.7501 16.9731 27.6153 16.8508Z" fill="white"/>
<defs>
<filter id="filter0_d_15602_33903" x="0" y="0" width="44" height="44" filterUnits="userSpaceOnUse" color-interpolation-filters="sRGB">
<feFlood flood-opacity="0" result="BackgroundImageFix"/>
<feColorMatrix in="SourceAlpha" type="matrix" values="0 0 0 0 0 0 0 0 0 0 0 0 0 0 0 0 0 0 127 0" result="hardAlpha"/>
<feOffset dy="2"/>
<feGaussianBlur stdDeviation="2.5"/>
<feColorMatrix type="matrix" values="0 0 0 0 0 0 0 0 0 0 0 0 0 0 0 0 0 0 0.15 0"/>
<feBlend mode="normal" in2="BackgroundImageFix" result="effect1_dropShadow_15602_33903"/>
<feBlend mode="normal" in="SourceGraphic" in2="effect1_dropShadow_15602_33903" result="shape"/>
</filter>
</defs>
</svg>
