<svg width="126" height="44" viewBox="0 0 126 44" fill="none" xmlns="http://www.w3.org/2000/svg">
<rect x="6" y="4" width="120" height="32" rx="16" fill="#D7EBC6"/>
<g filter="url(#filter0_d_15602_33893)">
<circle cx="22" cy="20" r="17" fill="#95CA68"/>
</g>
<path d="M44.518 20.114C44.518 17.202 46.744 15.144 49.488 15.144C51.518 15.144 53.268 16.166 54.01 18.07H52.092C51.574 17.034 50.65 16.544 49.488 16.544C47.556 16.544 46.156 17.916 46.156 20.114C46.156 22.312 47.556 23.698 49.488 23.698C50.65 23.698 51.574 23.208 52.092 22.172H54.01C53.268 24.076 51.518 25.084 49.488 25.084C46.744 25.084 44.518 23.04 44.518 20.114ZM63.2281 21.136C63.2281 23.558 61.4361 25.126 59.2241 25.126C57.0261 25.126 55.3601 23.558 55.3601 21.136C55.3601 18.714 57.0961 17.16 59.2941 17.16C61.4921 17.16 63.2281 18.714 63.2281 21.136ZM56.9841 21.136C56.9841 22.886 58.0201 23.74 59.2241 23.74C60.4141 23.74 61.5901 22.886 61.5901 21.136C61.5901 19.386 60.4561 18.546 59.2661 18.546C58.0621 18.546 56.9841 19.386 56.9841 21.136ZM70.2799 25V20.688C70.2799 19.274 69.5099 18.546 68.3479 18.546C67.1719 18.546 66.4019 19.274 66.4019 20.688V25H64.8059V17.286H66.4019V18.168C66.9199 17.538 67.7739 17.16 68.6979 17.16C70.5039 17.16 71.8619 18.294 71.8619 20.45V25H70.2799ZM74.1497 22.858V18.588H73.2397V17.286H74.1497V15.368H75.7597V17.286H77.6357V18.588H75.7597V22.858C75.7597 23.432 75.9837 23.67 76.6557 23.67H77.6357V25H76.3757C75.0037 25 74.1497 24.426 74.1497 22.858ZM78.5746 21.108C78.5746 18.728 80.1846 17.16 82.2146 17.16C83.5166 17.16 84.4126 17.776 84.8886 18.406V17.286H86.4986V25H84.8886V23.852C84.3986 24.51 83.4746 25.126 82.1866 25.126C80.1846 25.126 78.5746 23.488 78.5746 21.108ZM84.8886 21.136C84.8886 19.484 83.7546 18.546 82.5506 18.546C81.3606 18.546 80.2126 19.442 80.2126 21.108C80.2126 22.774 81.3606 23.74 82.5506 23.74C83.7546 23.74 84.8886 22.802 84.8886 21.136ZM88.0629 21.136C88.0629 18.728 89.6309 17.16 91.8429 17.16C93.7329 17.16 94.9649 18.098 95.3989 19.722H93.6769C93.4109 18.98 92.7949 18.504 91.8429 18.504C90.5549 18.504 89.7009 19.456 89.7009 21.136C89.7009 22.83 90.5549 23.782 91.8429 23.782C92.7949 23.782 93.3829 23.362 93.6769 22.564H95.3989C94.9649 24.076 93.7329 25.126 91.8429 25.126C89.6309 25.126 88.0629 23.558 88.0629 21.136ZM97.2415 22.858V18.588H96.3315V17.286H97.2415V15.368H98.8515V17.286H100.727V18.588H98.8515V22.858C98.8515 23.432 99.0755 23.67 99.7475 23.67H100.727V25H99.4675C98.0955 25 97.2415 24.426 97.2415 22.858Z" fill="#222222"/>
<path d="M28 28C29.1046 28 30.0205 27.0959 29.8026 26.013C29.7026 25.5162 29.5651 25.0287 29.391 24.5558C28.989 23.4639 28.3997 22.4718 27.6569 21.636C26.914 20.8003 26.0321 20.1374 25.0615 19.6851C24.0909 19.2328 23.0506 19 22 19C20.9494 19 19.9091 19.2328 18.9385 19.6851C17.9679 20.1374 17.086 20.8003 16.3431 21.636C15.6003 22.4718 15.011 23.4639 14.609 24.5558C14.4349 25.0287 14.2974 25.5162 14.1974 26.013C13.9795 27.0959 14.8954 28 16 28H28Z" fill="white"/>
<path d="M25 15C25 16.6569 23.6569 18 22 18C20.3431 18 19 16.6569 19 15C19 13.3431 20.3431 12 22 12C23.6569 12 25 13.3431 25 15Z" fill="white"/>
<defs>
<filter id="filter0_d_15602_33893" x="0" y="0" width="44" height="44" filterUnits="userSpaceOnUse" color-interpolation-filters="sRGB">
<feFlood flood-opacity="0" result="BackgroundImageFix"/>
<feColorMatrix in="SourceAlpha" type="matrix" values="0 0 0 0 0 0 0 0 0 0 0 0 0 0 0 0 0 0 127 0" result="hardAlpha"/>
<feOffset dy="2"/>
<feGaussianBlur stdDeviation="2.5"/>
<feColorMatrix type="matrix" values="0 0 0 0 0 0 0 0 0 0 0 0 0 0 0 0 0 0 0.15 0"/>
<feBlend mode="normal" in2="BackgroundImageFix" result="effect1_dropShadow_15602_33893"/>
<feBlend mode="normal" in="SourceGraphic" in2="effect1_dropShadow_15602_33893" result="shape"/>
</filter>
</defs>
</svg>
