<svg width="109" height="44" viewBox="0 0 109 44" fill="none" xmlns="http://www.w3.org/2000/svg">
<rect x="6" y="4" width="103" height="32" rx="16" fill="#B8EAFA"/>
<g filter="url(#filter0_d_15602_33883)">
<circle cx="22" cy="20" r="17" fill="#42C6F0"/>
</g>
<path d="M51.616 25L50.916 23.012H46.842L46.142 25H44.476L47.962 15.256H49.81L53.296 25H51.616ZM50.468 21.71L48.886 17.188L47.29 21.71H50.468ZM61.7977 17.286V25H60.2017V24.076C59.6977 24.734 58.8297 25.112 57.9197 25.112C56.1137 25.112 54.7417 23.978 54.7417 21.822V17.286H56.3237V21.584C56.3237 22.998 57.0937 23.726 58.2557 23.726C59.4317 23.726 60.2017 22.998 60.2017 21.584V17.286H61.7977ZM63.3715 21.108C63.3715 18.728 64.9815 17.16 67.0255 17.16C68.0335 17.16 69.0975 17.636 69.6855 18.364V14.64H71.2955V25H69.6855V23.838C69.1955 24.538 68.2715 25.126 67.0115 25.126C64.9815 25.126 63.3715 23.488 63.3715 21.108ZM69.6855 21.136C69.6855 19.484 68.5515 18.546 67.3475 18.546C66.1575 18.546 65.0095 19.442 65.0095 21.108C65.0095 22.774 66.1575 23.74 67.3475 23.74C68.5515 23.74 69.6855 22.802 69.6855 21.136ZM73.3918 25V17.286H74.9878V25H73.3918ZM74.2038 16.264C73.6298 16.264 73.1818 15.816 73.1818 15.242C73.1818 14.668 73.6298 14.22 74.2038 14.22C74.7638 14.22 75.2118 14.668 75.2118 15.242C75.2118 15.816 74.7638 16.264 74.2038 16.264ZM84.4332 21.136C84.4332 23.558 82.6412 25.126 80.4292 25.126C78.2312 25.126 76.5652 23.558 76.5652 21.136C76.5652 18.714 78.3012 17.16 80.4992 17.16C82.6972 17.16 84.4332 18.714 84.4332 21.136ZM78.1892 21.136C78.1892 22.886 79.2252 23.74 80.4292 23.74C81.6192 23.74 82.7952 22.886 82.7952 21.136C82.7952 19.386 81.6612 18.546 80.4712 18.546C79.2672 18.546 78.1892 19.386 78.1892 21.136Z" fill="#222222"/>
<path d="M19.3333 27C19.3333 27.5523 18.8856 28 18.3333 28H15.7778C15.2889 28 14.8704 27.8259 14.5222 27.4778C14.1741 27.1296 14 26.7111 14 26.2222V20C14 18.8889 14.2111 17.8481 14.6333 16.8778C15.0556 15.9074 15.6259 15.063 16.3444 14.3444C17.063 13.6259 17.9074 13.0556 18.8778 12.6333C19.8481 12.2111 20.8889 12 22 12C23.1111 12 24.1519 12.2111 25.1222 12.6333C26.0926 13.0556 26.937 13.6259 27.6556 14.3444C28.3741 15.063 28.9444 15.9074 29.3667 16.8778C29.7889 17.8481 30 18.8889 30 20V26.2222C30 26.7111 29.8259 27.1296 29.4778 27.4778C29.1296 27.8259 28.7111 28 28.2222 28H25.6667C25.1144 28 24.6667 27.5523 24.6667 27V21.8889C24.6667 21.3366 25.1144 20.8889 25.6667 20.8889H28.2222V20C28.2222 18.2667 27.6185 16.7963 26.4111 15.5889C25.2037 14.3815 23.7333 13.7778 22 13.7778C20.2667 13.7778 18.7963 14.3815 17.5889 15.5889C16.3815 16.7963 15.7778 18.2667 15.7778 20V20.8889H18.3333C18.8856 20.8889 19.3333 21.3366 19.3333 21.8889V27Z" fill="white"/>
<defs>
<filter id="filter0_d_15602_33883" x="0" y="0" width="44" height="44" filterUnits="userSpaceOnUse" color-interpolation-filters="sRGB">
<feFlood flood-opacity="0" result="BackgroundImageFix"/>
<feColorMatrix in="SourceAlpha" type="matrix" values="0 0 0 0 0 0 0 0 0 0 0 0 0 0 0 0 0 0 127 0" result="hardAlpha"/>
<feOffset dy="2"/>
<feGaussianBlur stdDeviation="2.5"/>
<feColorMatrix type="matrix" values="0 0 0 0 0 0 0 0 0 0 0 0 0 0 0 0 0 0 0.15 0"/>
<feBlend mode="normal" in2="BackgroundImageFix" result="effect1_dropShadow_15602_33883"/>
<feBlend mode="normal" in="SourceGraphic" in2="effect1_dropShadow_15602_33883" result="shape"/>
</filter>
</defs>
</svg>
