<svg width="112" height="44" viewBox="0 0 112 44" fill="none" xmlns="http://www.w3.org/2000/svg">
<rect x="6" y="4" width="106" height="32" rx="16" fill="#FFD1B2"/>
<g filter="url(#filter0_d_15602_33898)">
<circle cx="22" cy="20" r="17" fill="#FF8533"/>
</g>
<path d="M45.05 25V15.27H46.772L50.188 22.9L53.59 15.27H55.298V25H53.702V18.336L50.734 25H49.628L46.646 18.336V25H45.05ZM60.6437 18.504C59.5657 18.504 58.6977 19.232 58.5297 20.45H62.7997C62.7717 19.26 61.8337 18.504 60.6437 18.504ZM64.2557 22.704C63.8217 24.048 62.6037 25.126 60.7137 25.126C58.5017 25.126 56.8637 23.558 56.8637 21.136C56.8637 18.714 58.4317 17.16 60.7137 17.16C62.9117 17.16 64.4657 18.686 64.4657 20.954C64.4657 21.22 64.4517 21.472 64.4097 21.738H58.5157C58.6277 23.012 59.5377 23.782 60.7137 23.782C61.6937 23.782 62.2397 23.306 62.5337 22.704H64.2557ZM65.5043 21.108C65.5043 18.728 67.1143 17.16 69.1583 17.16C70.1663 17.16 71.2303 17.636 71.8183 18.364V14.64H73.4283V25H71.8183V23.838C71.3283 24.538 70.4043 25.126 69.1443 25.126C67.1143 25.126 65.5043 23.488 65.5043 21.108ZM71.8183 21.136C71.8183 19.484 70.6843 18.546 69.4803 18.546C68.2903 18.546 67.1423 19.442 67.1423 21.108C67.1423 22.774 68.2903 23.74 69.4803 23.74C70.6843 23.74 71.8183 22.802 71.8183 21.136ZM75.5246 25V17.286H77.1206V25H75.5246ZM76.3366 16.264C75.7626 16.264 75.3146 15.816 75.3146 15.242C75.3146 14.668 75.7626 14.22 76.3366 14.22C76.8966 14.22 77.3446 14.668 77.3446 15.242C77.3446 15.816 76.8966 16.264 76.3366 16.264ZM78.684 21.108C78.684 18.728 80.294 17.16 82.324 17.16C83.626 17.16 84.522 17.776 84.998 18.406V17.286H86.608V25H84.998V23.852C84.508 24.51 83.584 25.126 82.296 25.126C80.294 25.126 78.684 23.488 78.684 21.108ZM84.998 21.136C84.998 19.484 83.864 18.546 82.66 18.546C81.47 18.546 80.322 19.442 80.322 21.108C80.322 22.774 81.47 23.74 82.66 23.74C83.864 23.74 84.998 22.802 84.998 21.136Z" fill="#222222"/>
<path fill-rule="evenodd" clip-rule="evenodd" d="M16 12C14.8954 12 14 12.8954 14 14V26C14 27.1046 14.8954 28 16 28H28C29.1046 28 30 27.1046 30 26V14C30 12.8954 29.1046 12 28 12H16ZM23.4357 25.0891H24.5498H27.9951C28.2653 25.0891 28.4254 24.7478 28.2736 24.4955L25.9939 20.7066C25.8603 20.4846 25.5705 20.4846 25.437 20.7066L23.9706 23.1437L20.5956 17.8249C20.4613 17.6133 20.1825 17.6133 20.0482 17.8249L15.8204 24.4877C15.6608 24.7392 15.82 25.0891 16.094 25.0891H23.4357ZM27 15.5C27 16.3284 26.3284 17 25.5 17C24.6716 17 24 16.3284 24 15.5C24 14.6716 24.6716 14 25.5 14C26.3284 14 27 14.6716 27 15.5Z" fill="white"/>
<defs>
<filter id="filter0_d_15602_33898" x="0" y="0" width="44" height="44" filterUnits="userSpaceOnUse" color-interpolation-filters="sRGB">
<feFlood flood-opacity="0" result="BackgroundImageFix"/>
<feColorMatrix in="SourceAlpha" type="matrix" values="0 0 0 0 0 0 0 0 0 0 0 0 0 0 0 0 0 0 127 0" result="hardAlpha"/>
<feOffset dy="2"/>
<feGaussianBlur stdDeviation="2.5"/>
<feColorMatrix type="matrix" values="0 0 0 0 0 0 0 0 0 0 0 0 0 0 0 0 0 0 0.15 0"/>
<feBlend mode="normal" in2="BackgroundImageFix" result="effect1_dropShadow_15602_33898"/>
<feBlend mode="normal" in="SourceGraphic" in2="effect1_dropShadow_15602_33898" result="shape"/>
</filter>
</defs>
</svg>
