<svg width="65" height="65" viewBox="0 0 65 65" fill="none" xmlns="http://www.w3.org/2000/svg">
<g id="Group 1187">
<circle id="Ellipse 1140" cx="32.5" cy="32.5" r="32.5" fill="#81C14B"/>
<path id="Vector" d="M31.6663 23.8429V41.6548C31.6659 42.2075 31.4705 42.7423 31.1145 43.165C30.7584 43.5877 30.2647 43.8712 29.7202 43.9655C29.1756 44.0599 28.6153 43.959 28.1378 43.6807C27.6604 43.4024 27.2964 42.9645 27.1101 42.4442L24.2474 34.2437M24.2474 34.2437C23.1157 33.7624 22.1849 32.9063 21.6127 31.8177C21.0405 30.7291 20.8619 29.4762 21.1072 28.2711C21.3525 27.066 22.0067 25.9826 22.9589 25.2044C23.9111 24.4261 25.103 24.0007 26.3328 24.0003H28.7755C34.2424 24.0003 38.9425 22.3548 40.9999 20V38.668C38.9425 36.3131 34.2437 34.6677 28.7755 34.6677H26.3328C25.6163 34.6687 24.907 34.5236 24.2474 34.2437ZM40.9999 33.3343C42.0608 33.3343 43.0782 32.9128 43.8284 32.1626C44.5786 31.4124 45 30.3949 45 29.334C45 28.273 44.5786 27.2556 43.8284 26.5054C43.0782 25.7552 42.0608 25.3337 40.9999 25.3337V33.3343Z" stroke="white" stroke-width="2" stroke-linecap="round" stroke-linejoin="round"/>
</g>
</svg>
