<svg width="20" height="20" viewBox="0 0 20 20" fill="none" xmlns="http://www.w3.org/2000/svg">
<g id="Group 35717">
<circle id="Ellipse 1195" cx="10" cy="10" r="10" fill="white"/>
<path id="edit_calendar" d="M3.59006 17.2381C3.1528 17.2381 2.77847 17.0889 2.46708 16.7905C2.15569 16.4921 2 16.1333 2 15.7143V5.04762C2 4.62857 2.15569 4.26984 2.46708 3.97143C2.77847 3.67302 3.1528 3.52381 3.59006 3.52381H4.38509V2H5.97516V3.52381H12.3354V2H13.9255V3.52381H14.7205C15.1578 3.52381 15.5321 3.67302 15.8435 3.97143C16.1549 4.26984 16.3106 4.62857 16.3106 5.04762V9.61905H14.7205V8.09524H3.59006V15.7143H9.15528V17.2381H3.59006ZM17.205 13.4286L15.5155 11.8095L16.0919 11.2571C16.2377 11.1175 16.4232 11.0476 16.6484 11.0476C16.8737 11.0476 17.0592 11.1175 17.205 11.2571L17.7814 11.8095C17.9271 11.9492 18 12.127 18 12.3429C18 12.5587 17.9271 12.7365 17.7814 12.8762L17.205 13.4286ZM10.7453 18V16.381L14.959 12.3429L16.6484 13.9619L12.4348 18H10.7453ZM3.59006 6.57143H14.7205V5.04762H3.59006V6.57143Z" fill="#1C1B1F"/>
</g>
</svg>
