<svg width="18" height="18" viewBox="0 0 18 18" fill="none" xmlns="http://www.w3.org/2000/svg">
<path d="M16.9921 13.6294C17.0283 13.8811 16.9386 14.1345 16.7521 14.3073L14.5026 16.5413C14.3894 16.6627 14.2535 16.7606 14.1026 16.8295C13.9514 16.9048 13.7895 16.9564 13.6226 16.9824C13.6114 16.9824 13.5775 16.9853 13.521 16.9912C13.4645 16.9971 13.3911 17 13.301 17C12.9523 16.9865 12.6048 16.9496 12.261 16.8895C11.6552 16.7778 11.0646 16.5957 10.5011 16.3468C9.67553 15.9875 8.88452 15.5535 8.13791 15.0501C7.11859 14.3607 6.17425 13.5664 5.32037 12.68C4.60664 11.9881 3.94961 11.24 3.35561 10.4428C2.89083 9.81639 2.47265 9.15665 2.10444 8.46894C1.8213 7.94193 1.58313 7.39195 1.39245 6.82485C1.25408 6.40978 1.14712 5.98488 1.07246 5.55375C1.02042 5.27725 0.996299 4.99622 1.00046 4.7149C1.01379 4.51158 1.02046 4.39819 1.02046 4.37471C1.04647 4.20773 1.098 4.04574 1.17326 3.89445C1.2422 3.7435 1.34004 3.60753 1.46125 3.49423L3.7132 1.2402C3.85309 1.08863 4.0494 1.00171 4.25559 1.00007C4.39598 0.998013 4.53305 1.04279 4.64518 1.12734C4.75944 1.21355 4.85703 1.31988 4.93317 1.44111L6.74514 4.88299C6.84674 5.06306 6.87701 5.27476 6.82993 5.47611C6.78979 5.68156 6.68955 5.87045 6.54194 6.01881L5.71236 6.85046C5.68461 6.88238 5.66438 6.92013 5.65316 6.96092C5.63805 7.00175 5.62941 7.04469 5.62756 7.08819C5.69 7.37239 5.79263 7.64623 5.93235 7.90143C6.11483 8.24794 6.32427 8.57954 6.55874 8.89318C6.92121 9.37432 7.32255 9.82488 7.75871 10.2403C8.17694 10.6803 8.63015 11.0856 9.11389 11.4522C9.42786 11.6886 9.75919 11.9011 10.1051 12.0877C10.2972 12.1948 10.502 12.2773 10.7147 12.3335L10.9266 12.3759C10.9645 12.3726 11.0016 12.364 11.037 12.3503C11.0778 12.339 11.1155 12.3188 11.1474 12.291L12.113 11.3081C12.3073 11.131 12.5614 11.034 12.8242 11.0367C12.9831 11.0289 13.1412 11.064 13.2818 11.1384H13.2986L16.5673 13.0707C16.7825 13.1872 16.9373 13.3907 16.9921 13.6294Z" stroke="#555555" stroke-width="1.2"/>
</svg>
