<svg width="24" height="24" viewBox="0 0 24 24" fill="none" xmlns="http://www.w3.org/2000/svg">
<g id="calling">
<path id="Path_1189" d="M19.9921 16.6294C20.0283 16.8811 19.9386 17.1345 19.7521 17.3073L17.5026 19.5413C17.3894 19.6627 17.2535 19.7606 17.1026 19.8295C16.9514 19.9048 16.7895 19.9564 16.6226 19.9824C16.6114 19.9824 16.5775 19.9853 16.521 19.9912C16.4645 19.9971 16.3911 20 16.301 20C15.9523 19.9865 15.6048 19.9496 15.261 19.8895C14.6552 19.7778 14.0646 19.5957 13.5011 19.3468C12.6755 18.9875 11.8845 18.5535 11.1379 18.0501C10.1186 17.3607 9.17425 16.5664 8.32037 15.68C7.60664 14.9881 6.94961 14.24 6.35561 13.4428C5.89083 12.8164 5.47265 12.1567 5.10444 11.4689C4.8213 10.9419 4.58313 10.3919 4.39245 9.82485C4.25408 9.40978 4.14712 8.98488 4.07246 8.55375C4.02042 8.27725 3.9963 7.99622 4.00046 7.7149C4.01379 7.51158 4.02046 7.39819 4.02046 7.37471C4.04647 7.20773 4.098 7.04574 4.17326 6.89445C4.2422 6.7435 4.34004 6.60753 4.46125 6.49423L6.7132 4.2402C6.85309 4.08863 7.0494 4.00171 7.25559 4.00007C7.39598 3.99801 7.53305 4.04279 7.64518 4.12734C7.75944 4.21355 7.85703 4.31988 7.93317 4.44111L9.74514 7.88299C9.84674 8.06306 9.87701 8.27476 9.82993 8.47611C9.78979 8.68156 9.68955 8.87045 9.54194 9.01881L8.71236 9.85046C8.68461 9.88238 8.66438 9.92013 8.65316 9.96092C8.63805 10.0018 8.62941 10.0447 8.62756 10.0882C8.69 10.3724 8.79263 10.6462 8.93235 10.9014C9.11483 11.2479 9.32427 11.5795 9.55874 11.8932C9.92121 12.3743 10.3226 12.8249 10.7587 13.2403C11.1769 13.6803 11.6301 14.0856 12.1139 14.4522C12.4279 14.6886 12.7592 14.9011 13.1051 15.0877C13.2972 15.1948 13.502 15.2773 13.7147 15.3335L13.9266 15.3759C13.9645 15.3726 14.0016 15.364 14.037 15.3503C14.0778 15.339 14.1155 15.3188 14.1474 15.291L15.113 14.3081C15.3073 14.131 15.5614 14.034 15.8242 14.0367C15.9831 14.0289 16.1412 14.064 16.2818 14.1384H16.2986L19.5673 16.0707C19.7825 16.1872 19.9373 16.3907 19.9921 16.6294Z" stroke="#333333" stroke-width="1.5"/>
</g>
</svg>
