<svg width="58" height="53" viewBox="0 0 58 53" fill="none" xmlns="http://www.w3.org/2000/svg">
<g filter="url(#filter0_d_17045_27261)">
<path d="M23.5141 23.8859C23.5141 20.9787 25.7713 18.622 28.5556 18.622C31.34 18.622 33.5971 20.9787 33.5971 23.8859C33.5971 26.7931 31.34 29.1498 28.5556 29.1498C25.7713 29.1498 23.5141 26.7931 23.5141 23.8859Z" fill="white"/>
<path fill-rule="evenodd" clip-rule="evenodd" d="M18.4136 11.3518C18.4136 7.29152 21.566 4 25.4548 4H31.6563C35.5451 4 38.6975 7.29152 38.6975 11.3518C38.6975 11.3865 38.723 11.4154 38.7562 11.4182L43.752 11.8419C45.9898 12.0316 47.8302 13.7595 48.2479 16.0628C49.3137 21.9403 49.3932 27.9666 48.4827 33.8726L48.2648 35.2861C47.8541 37.9506 45.7538 39.9778 43.1775 40.1963L38.8254 40.5653C31.9901 41.1449 25.121 41.1449 18.2857 40.5653L13.9336 40.1963C11.3573 39.9778 9.25702 37.9506 8.84627 35.2862L8.62836 33.8726C7.71791 27.9666 7.79739 21.9403 8.86324 16.0628C9.28093 13.7595 11.1213 12.0316 13.3591 11.8419L18.3549 11.4182C18.3881 11.4154 18.4136 11.3865 18.4136 11.3518ZM28.5556 15.1127C23.915 15.1127 20.1531 19.0406 20.1531 23.8859C20.1531 28.7312 23.915 32.6591 28.5556 32.6591C33.1962 32.6591 36.9581 28.7312 36.9581 23.8859C36.9581 19.0406 33.1962 15.1127 28.5556 15.1127Z" fill="white"/>
<rect x="12.1111" y="13.5928" width="32.8889" height="23.2963" fill="white"/>
<path d="M24.8768 24.5113C24.8768 22.3899 26.5239 20.6701 28.5557 20.6701C30.5875 20.6701 32.2346 22.3899 32.2346 24.5113C32.2346 26.6328 30.5875 28.3526 28.5557 28.3526C26.5239 28.3526 24.8768 26.6328 24.8768 24.5113Z" fill="#277044"/>
<path fill-rule="evenodd" clip-rule="evenodd" d="M21.1548 15.3648C21.1548 12.4019 23.4552 10 26.2929 10H30.8184C33.6561 10 35.9566 12.4019 35.9566 15.3648C35.9566 15.3902 35.9752 15.4113 35.9994 15.4133L39.6449 15.7224C41.2779 15.8609 42.6209 17.1218 42.9257 18.8026C43.7035 23.0916 43.7615 27.4892 43.0971 31.7989L42.9381 32.8304C42.6384 34.7748 41.1057 36.2541 39.2257 36.4135L36.0499 36.6828C31.0619 37.1057 26.0494 37.1057 21.0615 36.6828L17.8856 36.4135C16.0056 36.2541 14.4729 34.7748 14.1732 32.8304L14.0142 31.7989C13.3498 27.4892 13.4078 23.0916 14.1856 18.8026C14.4904 17.1218 15.8334 15.8609 17.4664 15.7224L21.112 15.4133C21.1361 15.4113 21.1548 15.3902 21.1548 15.3648ZM28.5557 18.1093C25.1693 18.1093 22.4242 20.9756 22.4242 24.5113C22.4242 28.0471 25.1693 30.9134 28.5557 30.9134C31.9421 30.9134 34.6873 28.0471 34.6873 24.5113C34.6873 20.9756 31.9421 18.1093 28.5557 18.1093Z" fill="#277044"/>
</g>
<defs>
<filter id="filter0_d_17045_27261" x="0" y="0" width="57.1111" height="53" filterUnits="userSpaceOnUse" color-interpolation-filters="sRGB">
<feFlood flood-opacity="0" result="BackgroundImageFix"/>
<feColorMatrix in="SourceAlpha" type="matrix" values="0 0 0 0 0 0 0 0 0 0 0 0 0 0 0 0 0 0 127 0" result="hardAlpha"/>
<feOffset dy="4"/>
<feGaussianBlur stdDeviation="4"/>
<feComposite in2="hardAlpha" operator="out"/>
<feColorMatrix type="matrix" values="0 0 0 0 0 0 0 0 0 0 0 0 0 0 0 0 0 0 0.15 0"/>
<feBlend mode="normal" in2="BackgroundImageFix" result="effect1_dropShadow_17045_27261"/>
<feBlend mode="normal" in="SourceGraphic" in2="effect1_dropShadow_17045_27261" result="shape"/>
</filter>
</defs>
</svg>
