<svg width="10" height="12" viewBox="0 0 10 12" fill="none" xmlns="http://www.w3.org/2000/svg">
<path id="Vector" d="M6.70197 3.00554L3.35515 6.7655C3.25808 6.87082 3.18065 6.99682 3.12738 7.13612C3.07412 7.27542 3.04608 7.42525 3.04491 7.57686C3.04374 7.72847 3.06945 7.87882 3.12055 8.01914C3.17166 8.15947 3.24712 8.28695 3.34255 8.39416C3.43798 8.50136 3.55146 8.58615 3.67636 8.64356C3.80127 8.70097 3.9351 8.72986 4.07005 8.72854C4.205 8.72722 4.33836 8.69573 4.46236 8.63588C4.58636 8.57604 4.6985 8.48906 4.79226 8.38L8.05167 4.62005C8.42194 4.18936 8.62683 3.61251 8.6222 3.01376C8.61757 2.41501 8.40379 1.84225 8.02691 1.41885C7.65004 0.995453 7.14021 0.755289 6.60725 0.750086C6.07428 0.744883 5.56082 0.975058 5.17745 1.39103L1.91753 5.15042C1.34568 5.79286 1.02441 6.6642 1.02441 7.57275C1.02441 8.4813 1.34568 9.35264 1.91753 9.99508C2.48938 10.6375 3.26498 10.9984 4.0737 10.9984C4.88243 10.9984 5.65802 10.6375 6.22988 9.99508L9.40951 6.43095" stroke="#4F4F4F" stroke-width="0.978261" stroke-linecap="round" stroke-linejoin="round"/>
</svg>
