<svg width="18" height="14" viewBox="0 0 18 14" fill="none" xmlns="http://www.w3.org/2000/svg">
<path id="Path_1190" d="M16.6511 1.34803C16.5801 1.31805 16.5044 1.30211 16.4279 1.30099C16.2765 1.29776 16.131 1.36255 16.028 1.47907L12.4282 5.24817V3.70004C12.4256 2.21015 11.276 1.00304 9.85721 1.00026H3.57126C2.88761 0.990032 2.23027 1.27665 1.7546 1.79239C1.26346 2.29188 0.990507 2.98215 1.00025 3.70004V10.3C0.990507 11.0179 1.26346 11.7081 1.7546 12.2076C2.23027 12.7233 2.88761 13.01 3.57126 12.9997H9.85641C11.2752 12.997 12.4248 11.7899 12.4274 10.3V8.74763L16.0272 12.5277C16.1302 12.6442 16.2757 12.709 16.4271 12.7057C16.5036 12.7046 16.5793 12.6886 16.6503 12.6587C16.8711 12.5736 17.0128 12.3467 16.9991 12.1001V1.90327C17.0115 1.65812 16.8704 1.43307 16.6511 1.34803Z" stroke="#555555" stroke-width="1.5"/>
</svg>
