<svg width="19" height="18" viewBox="0 0 19 18" fill="none" xmlns="http://www.w3.org/2000/svg">
<g id="Frame">
<g id="Group 35767">
<path id="Vector" d="M6.75 7C6.75 6.66848 6.8817 6.35054 7.11612 6.11612C7.35054 5.8817 7.66848 5.75 8 5.75H14C14.3315 5.75 14.6495 5.8817 14.8839 6.11612C15.1183 6.35054 15.25 6.66848 15.25 7V13C15.25 13.3315 15.1183 13.6495 14.8839 13.8839C14.6495 14.1183 14.3315 14.25 14 14.25H8C7.66848 14.25 7.35054 14.1183 7.11612 13.8839C6.8817 13.6495 6.75 13.3315 6.75 13V7Z" stroke="#4F4F4F" stroke-width="1.5"/>
<path id="Vector_2" d="M12 3H6C5.46957 3 4.96086 3.21071 4.58579 3.58579C4.21071 3.96086 4 4.46957 4 5V11" stroke="#4F4F4F" stroke-width="1.5" stroke-linecap="round"/>
</g>
</g>
</svg>
