<svg width="14" height="16" viewBox="0 0 14 16" fill="none" xmlns="http://www.w3.org/2000/svg">
<path id="delete_forever" d="M4.725 12L7 9.68889L9.275 12L10.5 10.7556L8.225 8.44444L10.5 6.13333L9.275 4.88889L7 7.2L4.725 4.88889L3.5 6.13333L5.775 8.44444L3.5 10.7556L4.725 12ZM2.625 16C2.14375 16 1.73177 15.8259 1.38906 15.4778C1.04635 15.1296 0.875 14.7111 0.875 14.2222V2.66667H0V0.888889H4.375V0H9.625V0.888889H14V2.66667H13.125V14.2222C13.125 14.7111 12.9536 15.1296 12.6109 15.4778C12.2682 15.8259 11.8562 16 11.375 16H2.625ZM11.375 2.66667H2.625V14.2222H11.375V2.66667Z" fill="#FF2020" fill-opacity="0.8"/>
</svg>
