<svg width="47" height="60" viewBox="0 0 47 60" fill="none" xmlns="http://www.w3.org/2000/svg">
<path d="M27.0361 1.67856L27.0363 1.67867L44.8251 19.7253L44.8252 19.7254C45.2555 20.1618 45.4998 20.7567 45.5 21.38C45.5 21.3801 45.5 21.3801 45.5 21.3802V53.3333C45.5 54.8408 44.9096 56.2837 43.8631 57.3454C42.8171 58.4065 41.4015 59 39.9286 59H7.07143C5.59848 59 4.18289 58.4065 3.1369 57.3454L2.42473 58.0474L3.1369 57.3454C2.09043 56.2837 1.5 54.8408 1.5 53.3333V6.66667C1.5 5.15917 2.09043 3.71626 3.1369 2.65462C4.18289 1.59347 5.59847 1 7.07143 1H25.4252C25.4253 1 25.4254 1 25.4254 1C26.0268 1.00019 26.6065 1.24255 27.0361 1.67856Z" stroke="black" stroke-width="2" stroke-linecap="round" stroke-linejoin="round"/>
<path d="M9.00293 35H6.87695L6.89062 33.6396H9.00293C9.61816 33.6396 10.1331 33.5052 10.5479 33.2363C10.9671 32.9674 11.2816 32.5824 11.4912 32.0811C11.7054 31.5798 11.8125 30.9827 11.8125 30.29V29.75C11.8125 29.2122 11.751 28.736 11.6279 28.3213C11.5094 27.9066 11.3317 27.5579 11.0947 27.2754C10.8623 26.9928 10.5752 26.7786 10.2334 26.6328C9.89616 26.487 9.50651 26.4141 9.06445 26.4141H6.83594V25.0469H9.06445C9.72526 25.0469 10.3291 25.1585 10.876 25.3818C11.4229 25.6006 11.8945 25.9173 12.291 26.332C12.6921 26.7467 12.9997 27.2435 13.2139 27.8223C13.4281 28.401 13.5352 29.0482 13.5352 29.7637V30.29C13.5352 31.0055 13.4281 31.6527 13.2139 32.2314C12.9997 32.8102 12.6921 33.307 12.291 33.7217C11.89 34.1318 11.4115 34.4486 10.8555 34.6719C10.304 34.8906 9.68652 35 9.00293 35ZM7.82715 25.0469V35H6.11133V25.0469H7.82715ZM23.1943 29.75V30.2969C23.1943 31.0488 23.0964 31.7233 22.9004 32.3203C22.7044 32.9173 22.4242 33.4255 22.0596 33.8447C21.6995 34.264 21.2666 34.5853 20.7607 34.8086C20.2549 35.0273 19.6943 35.1367 19.0791 35.1367C18.4684 35.1367 17.9102 35.0273 17.4043 34.8086C16.903 34.5853 16.4678 34.264 16.0986 33.8447C15.7295 33.4255 15.4424 32.9173 15.2373 32.3203C15.0368 31.7233 14.9365 31.0488 14.9365 30.2969V29.75C14.9365 28.998 15.0368 28.3258 15.2373 27.7334C15.4378 27.1364 15.7204 26.6283 16.085 26.209C16.4541 25.7852 16.8893 25.4639 17.3906 25.2451C17.8965 25.0218 18.4548 24.9102 19.0654 24.9102C19.6807 24.9102 20.2412 25.0218 20.7471 25.2451C21.2529 25.4639 21.6882 25.7852 22.0527 26.209C22.4173 26.6283 22.6976 27.1364 22.8936 27.7334C23.0941 28.3258 23.1943 28.998 23.1943 29.75ZM21.4785 30.2969V29.7363C21.4785 29.1803 21.4238 28.6904 21.3145 28.2666C21.2096 27.8382 21.0524 27.4805 20.8428 27.1934C20.6377 26.9017 20.3848 26.6829 20.084 26.5371C19.7832 26.3867 19.4437 26.3115 19.0654 26.3115C18.6872 26.3115 18.3499 26.3867 18.0537 26.5371C17.7575 26.6829 17.5046 26.9017 17.2949 27.1934C17.0898 27.4805 16.9326 27.8382 16.8232 28.2666C16.7139 28.6904 16.6592 29.1803 16.6592 29.7363V30.2969C16.6592 30.8529 16.7139 31.3451 16.8232 31.7734C16.9326 32.2018 17.0921 32.5641 17.3018 32.8604C17.516 33.152 17.7712 33.373 18.0674 33.5234C18.3636 33.6693 18.7008 33.7422 19.0791 33.7422C19.4619 33.7422 19.8014 33.6693 20.0977 33.5234C20.3939 33.373 20.6445 33.152 20.8496 32.8604C21.0547 32.5641 21.2096 32.2018 21.3145 31.7734C21.4238 31.3451 21.4785 30.8529 21.4785 30.2969ZM30.7891 31.7598H32.498C32.4434 32.4115 32.2611 32.9925 31.9512 33.5029C31.6413 34.0088 31.2061 34.4076 30.6455 34.6992C30.085 34.9909 29.4036 35.1367 28.6016 35.1367C27.9863 35.1367 27.4326 35.0273 26.9404 34.8086C26.4482 34.5853 26.0267 34.2708 25.6758 33.8652C25.3249 33.4551 25.056 32.9606 24.8691 32.3818C24.6868 31.8031 24.5957 31.1559 24.5957 30.4404V29.6133C24.5957 28.8978 24.6891 28.2507 24.876 27.6719C25.0674 27.0931 25.3408 26.5986 25.6963 26.1885C26.0518 25.7738 26.4779 25.457 26.9746 25.2383C27.4759 25.0195 28.0387 24.9102 28.6631 24.9102C29.4561 24.9102 30.126 25.056 30.6729 25.3477C31.2197 25.6393 31.6436 26.0426 31.9443 26.5576C32.2497 27.0726 32.4365 27.6628 32.5049 28.3281H30.7959C30.7503 27.8997 30.6501 27.5329 30.4951 27.2275C30.3447 26.9222 30.1214 26.6898 29.8252 26.5303C29.529 26.3662 29.1416 26.2842 28.6631 26.2842C28.2712 26.2842 27.9294 26.3571 27.6377 26.5029C27.346 26.6488 27.1022 26.863 26.9062 27.1455C26.7103 27.4281 26.5622 27.7767 26.4619 28.1914C26.3662 28.6016 26.3184 29.071 26.3184 29.5996V30.4404C26.3184 30.9417 26.3617 31.3975 26.4482 31.8076C26.5394 32.2132 26.6761 32.5618 26.8584 32.8535C27.0452 33.1452 27.2822 33.3708 27.5693 33.5303C27.8564 33.6898 28.2005 33.7695 28.6016 33.7695C29.0892 33.7695 29.4834 33.6921 29.7842 33.5371C30.0895 33.3822 30.3197 33.1566 30.4746 32.8604C30.6341 32.5596 30.7389 32.1927 30.7891 31.7598ZM35.3623 25.0469L37.4746 28.6768L39.5869 25.0469H41.5625L38.5547 29.9756L41.6377 35H39.6416L37.4746 31.3018L35.3076 35H33.3047L36.3945 29.9756L33.3799 25.0469H35.3623Z" fill="black"/>
</svg>
