<svg width="24" height="20" viewBox="0 0 24 20" fill="none" xmlns="http://www.w3.org/2000/svg">
<path id="Mask" fill-rule="evenodd" clip-rule="evenodd" d="M0.17955 18.1362L10.8796 0.616994C11.007 0.368494 11.1344 0.244244 11.3892 0.119994C12.0261 -0.128506 12.7904 -0.00425613 13.1725 0.616994L23.8726 18.1362C24 18.3847 24 18.509 24 18.7575C24 19.1302 23.8726 19.3787 23.6179 19.6272C23.3631 19.8757 23.1083 20 22.7262 20H1.19861C1.07122 20 0.816461 20 0.689079 19.8757C0.0521681 19.503 -0.202596 18.7575 0.17955 18.1362ZM13 7.16667V11.8333C13 12.5333 12.6 13 12 13C11.4 13 11 12.5333 11 11.8333V7.16667C11 6.46667 11.4 6 12 6C12.6 6 13 6.46667 13 7.16667ZM13 16C13 16.3 12.9048 16.5 12.7143 16.7C12.5238 16.9 12.3333 17 11.9524 17C11.6667 17 11.4762 16.9 11.2857 16.7C11.0952 16.5 11 16.3 11 16C11 15.8828 11.0327 15.8 11.0598 15.7314C11.0789 15.6828 11.0952 15.6414 11.0952 15.6C11.0952 15.5 11.1905 15.4 11.2857 15.3C11.3809 15.2 11.4762 15.1 11.5714 15.1C11.7619 15 11.9524 15 12.1429 15C12.1981 15.058 12.2213 15.0823 12.2496 15.0926C12.2701 15.1 12.2933 15.1 12.3333 15.1C12.381 15.1 12.4048 15.125 12.4286 15.15C12.4524 15.175 12.4762 15.2 12.5238 15.2C12.619 15.2 12.7143 15.3 12.7143 15.3C12.8095 15.4 12.9048 15.5 12.9048 15.6C13 15.7 13 15.9 13 16Z" fill="#EB5757"/>
</svg>
