<svg width="14" height="16" viewBox="0 0 14 16" fill="none" xmlns="http://www.w3.org/2000/svg">
<path id="event" d="M8.94444 12.8C8.4 12.8 7.93982 12.6067 7.56389 12.22C7.18796 11.8333 7 11.36 7 10.8C7 10.24 7.18796 9.76667 7.56389 9.38C7.93982 8.99333 8.4 8.8 8.94444 8.8C9.48889 8.8 9.94907 8.99333 10.325 9.38C10.7009 9.76667 10.8889 10.24 10.8889 10.8C10.8889 11.36 10.7009 11.8333 10.325 12.22C9.94907 12.6067 9.48889 12.8 8.94444 12.8ZM1.55556 16C1.12778 16 0.761574 15.8433 0.456944 15.53C0.152315 15.2167 0 14.84 0 14.4V3.2C0 2.76 0.152315 2.38333 0.456944 2.07C0.761574 1.75667 1.12778 1.6 1.55556 1.6H2.33333V0H3.88889V1.6H10.1111V0H11.6667V1.6H12.4444C12.8722 1.6 13.2384 1.75667 13.5431 2.07C13.8477 2.38333 14 2.76 14 3.2V14.4C14 14.84 13.8477 15.2167 13.5431 15.53C13.2384 15.8433 12.8722 16 12.4444 16H1.55556ZM1.55556 14.4H12.4444V6.4H1.55556V14.4ZM1.55556 4.8H12.4444V3.2H1.55556V4.8Z" fill="#1C1B1F"/>
</svg>
