<svg width="92" height="74" viewBox="0 0 92 74" fill="none" xmlns="http://www.w3.org/2000/svg">
<path d="M67.5 71H89V62.5C88.9998 59.8503 88.1644 57.2664 86.6098 55.1077C85.0552 52.9489 82.8588 51.3225 80.3258 50.4544C77.7929 49.5864 75.0492 49.52 72.4762 50.2643C69.9033 51.0087 67.6289 52.5268 65.9692 54.6077L67.5 71ZM67.5 71H24.5H67.5ZM67.5 71V62.5C67.5 59.712 66.9582 57.0472 65.9692 54.6077L67.5 71ZM24.5 71H3V62.5C3.0002 59.8503 3.83564 57.2664 5.3902 55.1077C6.94477 52.9489 9.1412 51.3225 11.6742 50.4544C14.2072 49.5864 16.9508 49.52 19.5238 50.2643C22.0967 51.0087 24.3711 52.5268 26.0308 54.6077L24.5 71ZM24.5 71V62.5C24.5 59.712 25.0418 57.0472 26.0308 54.6077L24.5 71ZM26.0308 54.6077C27.6276 50.6636 30.3835 47.2827 33.9428 44.9013C37.5022 42.5198 41.7018 41.247 46 41.247C50.2982 41.247 54.4978 42.5198 58.0572 44.9013C61.6165 47.2827 64.3724 50.6636 65.9692 54.6077H26.0308ZM58.9 15.75C58.9 19.1315 57.5409 22.3745 55.1217 24.7656C52.7025 27.1567 49.4213 28.5 46 28.5C42.5787 28.5 39.2975 27.1567 36.8783 24.7656C34.4591 22.3745 33.1 19.1315 33.1 15.75C33.1 12.3685 34.4591 9.12548 36.8783 6.73439C39.2975 4.3433 42.5787 3 46 3C49.4213 3 52.7025 4.3433 55.1217 6.73439C57.5409 9.12548 58.9 12.3685 58.9 15.75V15.75ZM84.7 28.5C84.7 30.7543 83.7939 32.9163 82.1811 34.5104C80.5683 36.1045 78.3809 37 76.1 37C73.8191 37 71.6317 36.1045 70.0189 34.5104C68.4061 32.9163 67.5 30.7543 67.5 28.5C67.5 26.2457 68.4061 24.0837 70.0189 22.4896C71.6317 20.8955 73.8191 20 76.1 20C78.3809 20 80.5683 20.8955 82.1811 22.4896C83.7939 24.0837 84.7 26.2457 84.7 28.5ZM24.5 28.5C24.5 30.7543 23.5939 32.9163 21.9811 34.5104C20.3683 36.1045 18.1809 37 15.9 37C13.6191 37 11.4317 36.1045 9.81888 34.5104C8.20607 32.9163 7.3 30.7543 7.3 28.5C7.3 26.2457 8.20607 24.0837 9.81888 22.4896C11.4317 20.8955 13.6191 20 15.9 20C18.1809 20 20.3683 20.8955 21.9811 22.4896C23.5939 24.0837 24.5 26.2457 24.5 28.5Z" stroke="white" stroke-width="5" stroke-linecap="round" stroke-linejoin="round"/>
</svg>
