<svg width="52" height="52" viewBox="0 0 52 52" fill="none" xmlns="http://www.w3.org/2000/svg">
<circle cx="26" cy="26" r="26" fill="#81C14B"/>
<path d="M32.3999 34.3997H38.3999V31.9997C38.3998 31.2515 38.1667 30.522 37.7329 29.9125C37.299 29.3029 36.6861 28.8437 35.9792 28.5986C35.2723 28.3535 34.5066 28.3348 33.7886 28.5449C33.0706 28.7551 32.4359 29.1838 31.9727 29.7713L32.3999 34.3997ZM32.3999 34.3997H20.3999H32.3999ZM32.3999 34.3997V31.9997C32.3999 31.2125 32.2487 30.4601 31.9727 29.7713L32.3999 34.3997ZM20.3999 34.3997H14.3999V31.9997C14.4 31.2515 14.6331 30.522 15.0669 29.9125C15.5008 29.3029 16.1137 28.8437 16.8206 28.5986C17.5275 28.3535 18.2932 28.3348 19.0112 28.5449C19.7292 28.7551 20.3639 29.1838 20.8271 29.7713L20.3999 34.3997ZM20.3999 34.3997V31.9997C20.3999 31.2125 20.5511 30.4601 20.8271 29.7713L20.3999 34.3997ZM20.8271 29.7713C21.2727 28.6577 22.0418 27.7031 23.0351 27.0307C24.0284 26.3582 25.2004 25.9989 26.3999 25.9989C27.5994 25.9989 28.7714 26.3582 29.7647 27.0307C30.758 27.7031 31.5271 28.6577 31.9727 29.7713H20.8271ZM29.9999 18.7997C29.9999 19.7545 29.6206 20.6702 28.9455 21.3453C28.2704 22.0204 27.3547 22.3997 26.3999 22.3997C25.4451 22.3997 24.5294 22.0204 23.8543 21.3453C23.1792 20.6702 22.7999 19.7545 22.7999 18.7997C22.7999 17.8449 23.1792 16.9293 23.8543 16.2541C24.5294 15.579 25.4451 15.1997 26.3999 15.1997C27.3547 15.1997 28.2704 15.579 28.9455 16.2541C29.6206 16.9293 29.9999 17.8449 29.9999 18.7997V18.7997ZM37.1999 22.3997C37.1999 23.0362 36.947 23.6467 36.497 24.0968C36.0469 24.5468 35.4364 24.7997 34.7999 24.7997C34.1634 24.7997 33.5529 24.5468 33.1028 24.0968C32.6528 23.6467 32.3999 23.0362 32.3999 22.3997C32.3999 21.7632 32.6528 21.1527 33.1028 20.7027C33.5529 20.2526 34.1634 19.9997 34.7999 19.9997C35.4364 19.9997 36.0469 20.2526 36.497 20.7027C36.947 21.1527 37.1999 21.7632 37.1999 22.3997ZM20.3999 22.3997C20.3999 23.0362 20.147 23.6467 19.697 24.0968C19.2469 24.5468 18.6364 24.7997 17.9999 24.7997C17.3634 24.7997 16.7529 24.5468 16.3028 24.0968C15.8528 23.6467 15.5999 23.0362 15.5999 22.3997C15.5999 21.7632 15.8528 21.1527 16.3028 20.7027C16.7529 20.2526 17.3634 19.9997 17.9999 19.9997C18.6364 19.9997 19.2469 20.2526 19.697 20.7027C20.147 21.1527 20.3999 21.7632 20.3999 22.3997Z" stroke="white" stroke-width="2" stroke-linecap="round" stroke-linejoin="round"/>
</svg>
