<svg width="24" height="24" viewBox="0 0 24 24" fill="none" xmlns="http://www.w3.org/2000/svg">
<path d="M8 22.5C8 23.3284 7.32843 24 6.5 24H2.66667C1.93333 24 1.30556 23.7389 0.783333 23.2167C0.261111 22.6944 0 22.0667 0 21.3333V12C0 10.3333 0.316667 8.77222 0.95 7.31667C1.58333 5.86111 2.43889 4.59444 3.51667 3.51667C4.59444 2.43889 5.86111 1.58333 7.31667 0.95C8.77222 0.316667 10.3333 0 12 0C13.6667 0 15.2278 0.316667 16.6833 0.95C18.1389 1.58333 19.4056 2.43889 20.4833 3.51667C21.5611 4.59444 22.4167 5.86111 23.05 7.31667C23.6833 8.77222 24 10.3333 24 12V21.3333C24 22.0667 23.7389 22.6944 23.2167 23.2167C22.6944 23.7389 22.0667 24 21.3333 24H17.5C16.6716 24 16 23.3284 16 22.5V14.8333C16 14.0049 16.6716 13.3333 17.5 13.3333H21.3333V12C21.3333 9.4 20.4278 7.19444 18.6167 5.38333C16.8056 3.57222 14.6 2.66667 12 2.66667C9.4 2.66667 7.19444 3.57222 5.38333 5.38333C3.57222 7.19444 2.66667 9.4 2.66667 12V13.3333H6.5C7.32843 13.3333 8 14.0049 8 14.8333V22.5Z" fill="#42C6F0"/>
</svg>
