<svg width="20" height="16" viewBox="0 0 20 16" fill="none" xmlns="http://www.w3.org/2000/svg">
<path id="heart_plus" d="M9.09091 16L6.20455 13.4667C5.11364 12.5037 4.17803 11.6444 3.39773 10.8889C2.61742 10.1333 1.97348 9.42222 1.46591 8.75556C0.958333 8.08889 0.587121 7.44444 0.352273 6.82222C0.117424 6.2 0 5.54815 0 4.86667C0 3.47407 0.477273 2.31481 1.43182 1.38889C2.38636 0.462963 3.57576 0 5 0C5.78788 0 6.53788 0.162963 7.25 0.488889C7.96212 0.814815 8.57576 1.27407 9.09091 1.86667C9.60606 1.27407 10.2197 0.814815 10.9318 0.488889C11.6439 0.162963 12.3939 0 13.1818 0C14.4091 0 15.4394 0.337037 16.2727 1.01111C17.1061 1.68519 17.6742 2.53333 17.9773 3.55556H16.0455C15.7727 2.96296 15.3712 2.51852 14.8409 2.22222C14.3106 1.92593 13.7576 1.77778 13.1818 1.77778C12.4091 1.77778 11.7424 1.98148 11.1818 2.38889C10.6212 2.7963 10.0985 3.33333 9.61364 4H8.56818C8.09848 3.33333 7.56439 2.7963 6.96591 2.38889C6.36742 1.98148 5.71212 1.77778 5 1.77778C4.13636 1.77778 3.39015 2.07037 2.76136 2.65556C2.13258 3.24074 1.81818 3.97778 1.81818 4.86667C1.81818 5.35556 1.92424 5.85185 2.13636 6.35556C2.34848 6.85926 2.72727 7.44074 3.27273 8.1C3.81818 8.75926 4.56061 9.52963 5.5 10.4111C6.43939 11.2926 7.63636 12.3556 9.09091 13.6C9.48485 13.2593 9.94697 12.8667 10.4773 12.4222C11.0076 11.9778 11.4318 11.6074 11.75 11.3111L13.0455 12.5778C12.7121 12.8741 12.2879 13.2407 11.7727 13.6778C11.2576 14.1148 10.803 14.5037 10.4091 14.8444L9.09091 16ZM15.4545 12.4444V9.77778H12.7273V8H15.4545V5.33333H17.2727V8H20V9.77778H17.2727V12.4444H15.4545Z" fill="#1C1B1F"/>
</svg>
