<svg width="120" height="30" viewBox="0 0 120 30" fill="none" xmlns="http://www.w3.org/2000/svg">
<g id="Group 35760">
<path id="Vector" d="M34.336 16.7288H35.9704C36.1952 17.5892 36.6641 18.3542 37.3128 18.9185C37.9411 19.4463 38.7214 19.7251 39.5207 19.7073C39.955 19.7315 40.3855 19.6096 40.7514 19.3587C40.8959 19.2612 41.0145 19.1256 41.0958 18.965C41.177 18.8043 41.2182 18.6241 41.2153 18.4416C41.2153 17.8607 40.5459 17.3731 39.2071 16.9787C38.7776 16.8549 38.4318 16.7494 38.1848 16.6715C37.3801 16.4131 36.7608 16.1922 36.327 16.0088C35.9929 15.8835 35.6759 15.7115 35.3841 15.4975C34.9658 15.1803 34.62 14.7665 34.3725 14.2868C34.1499 13.8183 34.0379 13.2988 34.046 12.7735C34.03 12.2114 34.1362 11.653 34.3565 11.1422C34.5767 10.6313 34.905 10.182 35.3154 9.82941C36.1602 9.08498 37.2763 8.712 38.6637 8.71047C39.3276 8.70889 39.9896 8.78579 40.6376 8.93976C41.2529 9.09142 41.8486 9.32241 42.4116 9.62764L42.7166 9.02002H44.3446V13.2115H42.4374C42.2498 12.3524 41.8976 11.7134 41.3807 11.2946C40.8638 10.8757 40.1729 10.6656 39.3081 10.664C38.8647 10.6437 38.4267 10.7729 38.0559 11.0332C37.9076 11.1288 37.7846 11.2632 37.6986 11.4237C37.6125 11.5841 37.5662 11.7654 37.5641 11.9504C37.5641 12.4915 38.192 12.9004 39.4477 13.1771L40.165 13.3422C41.9176 13.7732 43.1455 14.3082 43.8485 14.9472C44.553 15.5869 44.9052 16.4536 44.9052 17.5542C44.9196 18.1131 44.8093 18.6676 44.5834 19.1719C44.3574 19.6762 44.0224 20.116 43.6058 20.4548C42.7381 21.1808 41.5697 21.5439 40.1006 21.5439C39.4495 21.5458 38.8005 21.4642 38.1676 21.3008C37.5265 21.1331 36.9059 20.8861 36.3184 20.5648L35.8888 21.2343H34.336V16.7288Z" fill="#204E4A"/>
<path id="Vector_2" d="M50.8761 12.3379C52.3795 12.3379 53.5672 12.7491 54.4392 13.5715C55.3112 14.3939 55.7479 15.5136 55.7494 16.9306C55.7494 18.3415 55.3155 19.4551 54.4478 20.2714C53.5801 21.0876 52.3953 21.4965 50.8932 21.4981C49.3783 21.4981 48.1928 21.0922 47.3365 20.2805C46.4803 19.4688 46.0507 18.3522 46.0479 16.9306C46.0479 15.5029 46.4774 14.3801 47.3365 13.5623C48.1956 12.7445 49.3755 12.3364 50.8761 12.3379ZM52.139 16.9237C52.139 15.8262 52.0445 15.0665 51.8554 14.6446C51.7716 14.4456 51.6329 14.2787 51.4579 14.1661C51.283 14.0534 51.08 14.0004 50.8761 14.014C50.6751 14.0016 50.4754 14.0554 50.3041 14.1682C50.1327 14.281 49.998 14.4473 49.9182 14.6446C49.7306 15.0665 49.6368 15.8262 49.6368 16.9237C49.6368 18.0212 49.732 18.7794 49.9224 19.1983C50.0074 19.3975 50.1473 19.5642 50.3235 19.6761C50.4997 19.788 50.7038 19.8397 50.9083 19.8242C51.1078 19.8381 51.3065 19.7859 51.4772 19.6747C51.6479 19.5635 51.7822 19.3987 51.8619 19.2029C52.0466 18.7932 52.139 18.0358 52.139 16.9306V16.9237Z" fill="#204E4A"/>
<path id="Vector_3" d="M64.9954 18.2261C64.9625 19.2961 64.6296 20.1147 63.9967 20.6818C63.3638 21.2489 62.4696 21.5325 61.3141 21.5325C59.9424 21.5325 58.8521 21.1151 58.0431 20.2805C57.2341 19.4459 56.8296 18.3293 56.8296 16.9306C56.8296 15.5136 57.2398 14.3939 58.0603 13.5715C58.8807 12.7491 59.9997 12.3379 61.4172 12.3379C62.5126 12.3379 63.3867 12.6054 64.0397 13.1404C64.3499 13.3812 64.6009 13.6987 64.7711 14.0657C64.9413 14.4326 65.0257 14.8382 65.0169 15.2476C65.0316 15.495 64.9972 15.7429 64.9162 15.9752C64.8352 16.2075 64.7092 16.4189 64.5465 16.5958C64.1757 16.9347 63.6957 17.1058 63.2085 17.0727C62.807 17.0966 62.4115 16.961 62.0981 16.6921C61.962 16.5638 61.8546 16.4044 61.784 16.2258C61.7133 16.0472 61.6812 15.854 61.69 15.6603C61.6761 15.339 61.7775 15.0241 61.9735 14.7798C62.0743 14.6664 62.1955 14.5759 62.3298 14.5137C62.4642 14.4514 62.6089 14.4187 62.7553 14.4176C62.6776 14.277 62.5645 14.1626 62.4288 14.0874C62.2711 14.0144 62.1002 13.98 61.9284 13.9865C61.3893 13.9865 61.007 14.202 60.7858 14.6308C60.5646 15.0596 60.4507 15.8254 60.4507 16.9237C60.4507 17.9693 60.5538 18.7145 60.76 19.1593C60.8461 19.3662 60.9887 19.5404 61.1693 19.6591C61.3499 19.7778 61.5598 19.8354 61.7716 19.8242C61.9359 19.8316 62.0995 19.7972 62.2488 19.7239C62.3982 19.6505 62.5291 19.5403 62.6307 19.4023C62.8586 19.0569 62.9747 18.6415 62.9615 18.2192L64.9954 18.2261Z" fill="#204E4A"/>
<path id="Vector_4" d="M70.6121 18.7556C70.6121 19.1018 70.6615 19.3311 70.7646 19.4434C70.954 19.5787 71.1828 19.6365 71.4089 19.6062H71.6967V21.1929H66.1426V19.6017H66.4798C66.8062 19.6017 67.0189 19.5466 67.1241 19.4389C67.2294 19.3311 67.2766 19.1018 67.2766 18.751V15.1053C67.2766 14.7544 67.2272 14.5252 67.1241 14.4174C67.021 14.3096 66.8105 14.2592 66.4798 14.2592H66.1426V12.6587H70.61L70.6121 18.7556ZM67.1928 10.3658C67.1883 10.147 67.2262 9.92952 67.3042 9.72709C67.3822 9.52466 67.4986 9.34165 67.646 9.18956C67.9324 8.88418 68.3205 8.71265 68.7253 8.71265C69.13 8.71265 69.5182 8.88418 69.8045 9.18956C70.0191 9.41721 70.1656 9.70768 70.2255 10.0242C70.2854 10.3408 70.256 10.6692 70.141 10.9679C70.0261 11.2666 69.8307 11.5222 69.5797 11.7024C69.3286 11.8825 69.0332 11.9792 68.7307 11.98C68.5296 11.9849 68.3297 11.9467 68.1427 11.8677C67.9558 11.7887 67.7856 11.6704 67.6422 11.5199C67.4988 11.3694 67.3852 11.1897 67.308 10.9915C67.2308 10.7932 67.1916 10.5805 67.1928 10.3658Z" fill="#204E4A"/>
<path id="Vector_5" d="M77.4975 12.3379C79.0009 12.3379 80.1886 12.7491 81.0606 13.5715C81.9326 14.3939 82.3693 15.5136 82.3708 16.9306C82.3708 18.3415 81.9369 19.4551 81.0692 20.2714C80.2015 21.0876 79.0202 21.4965 77.5254 21.4981C76.0119 21.4981 74.827 21.0922 73.9708 20.2805C73.1145 19.4688 72.685 18.3522 72.6821 16.9306C72.6821 15.5029 73.1117 14.3801 73.9708 13.5623C74.8299 12.7445 76.0055 12.3364 77.4975 12.3379ZM78.7603 16.9237C78.7603 15.8262 78.6658 15.0665 78.4768 14.6446C78.393 14.4456 78.2543 14.2787 78.0793 14.1661C77.9044 14.0534 77.7014 14.0004 77.4975 14.014C77.2965 14.0016 77.0968 14.0554 76.9254 14.1682C76.7541 14.281 76.6194 14.4473 76.5395 14.6446C76.352 15.0665 76.2589 15.8262 76.2603 16.9237C76.2618 18.0212 76.3563 18.7794 76.5438 19.1983C76.6277 19.3978 76.7667 19.5653 76.942 19.6783C77.1174 19.7914 77.3209 19.8447 77.5254 19.8311C77.7252 19.8452 77.9243 19.793 78.0953 19.6818C78.2664 19.5706 78.4011 19.4057 78.4811 19.2097C78.6701 18.7947 78.7603 18.0358 78.7603 16.9306V16.9237Z" fill="#204E4A"/>
<path id="Vector_6" d="M100.292 9.07715V10.7854H99.7294C99.3385 10.7854 99.0851 10.8381 98.9755 10.9413C98.866 11.0445 98.8058 11.3357 98.8058 11.8172V18.4299C98.8058 18.9183 98.8638 19.2118 98.9777 19.315C99.0915 19.4182 99.3449 19.4686 99.7294 19.4686H100.292V21.1883H94.0635V19.4686H94.4931C94.7514 19.496 95.0117 19.446 95.2448 19.3242C95.3651 19.2278 95.4252 18.9298 95.4252 18.4299V11.0536L92.5021 21.1883H89.8431L87.0854 11.0766V18.4299C87.0854 18.8885 87.1412 19.1912 87.2551 19.3012C87.3689 19.4113 87.6223 19.4686 88.0175 19.4686H88.4471V21.1883H83.3525V19.4686H83.8723C84.2696 19.4686 84.5166 19.4136 84.6369 19.3012C84.7572 19.1889 84.8044 18.9 84.8044 18.4299V11.8172C84.8044 11.3586 84.7507 11.0582 84.6412 10.9482C84.5317 10.8381 84.2739 10.7854 83.8723 10.7854H83.3525V9.07715H89.71L91.643 16.2952L93.7242 9.07715H100.292Z" fill="#81C14B"/>
<path id="Vector_7" d="M110.058 18.2261C109.865 19.3313 109.419 20.1559 108.72 20.7001C108.021 21.2443 107.058 21.5156 105.829 21.5141C104.427 21.5141 103.319 21.1029 102.502 20.2805C101.686 19.4581 101.279 18.3415 101.28 16.9306C101.28 15.5319 101.689 14.4168 102.507 13.5852C103.324 12.7537 104.421 12.3379 105.797 12.3379C107.157 12.3379 108.202 12.7506 108.931 13.5761C109.659 14.4015 110.025 15.5847 110.026 17.1255V17.4327H104.715V17.6093C104.715 18.327 104.856 18.8773 105.144 19.2579C105.287 19.4484 105.47 19.5998 105.678 19.6995C105.887 19.7992 106.115 19.8443 106.343 19.8311C106.737 19.8458 107.122 19.6971 107.416 19.4161C107.718 19.0942 107.915 18.6768 107.977 18.2261H110.058ZM104.715 15.846H107.165V15.7153C107.193 15.2547 107.08 14.7969 106.843 14.4107C106.737 14.2599 106.599 14.1393 106.439 14.0593C106.28 13.9793 106.104 13.9425 105.928 13.9521C105.751 13.9445 105.576 13.9859 105.418 14.0723C105.261 14.1587 105.127 14.2871 105.03 14.4451C104.797 14.8681 104.687 15.3559 104.715 15.846Z" fill="#81C14B"/>
<path id="Vector_8" d="M120 18.2261C119.807 19.3313 119.361 20.1559 118.662 20.7001C117.963 21.2443 117 21.5156 115.771 21.5141C114.368 21.5141 113.259 21.1029 112.444 20.2805C111.63 19.4581 111.222 18.3415 111.222 16.9306C111.222 15.5319 111.631 14.4168 112.449 13.5852C113.266 12.7537 114.363 12.3379 115.739 12.3379C117.099 12.3379 118.144 12.7506 118.873 13.5761C119.601 14.4015 119.966 15.5847 119.968 17.1255V17.4327H114.656V17.6093C114.656 18.327 114.798 18.8773 115.086 19.2579C115.229 19.4484 115.412 19.5998 115.62 19.6995C115.829 19.7992 116.056 19.8443 116.284 19.8311C116.679 19.8458 117.064 19.6971 117.358 19.4161C117.66 19.0942 117.857 18.6768 117.919 18.2261H120ZM114.656 15.846H117.109V15.7153C117.137 15.2547 117.024 14.7969 116.787 14.4107C116.682 14.2599 116.543 14.1393 116.383 14.0593C116.224 13.9793 116.048 13.9425 115.872 13.9521C115.695 13.9445 115.52 13.9859 115.362 14.0723C115.205 14.1587 115.071 14.2871 114.974 14.4451C114.74 14.8678 114.629 15.3557 114.656 15.846Z" fill="#81C14B"/>
<path id="Subtract" fill-rule="evenodd" clip-rule="evenodd" d="M4.4381 8.96658C1.6242 10.4193 0.543049 13.8359 2.02327 16.5975C2.52943 17.5418 3.26936 18.2873 4.13678 18.8015L3.07794 19.3482C0.264034 20.801 -0.817114 24.2175 0.663106 26.9791C2.14333 29.7409 5.62434 30.802 8.43834 29.3492L24.545 21.0335C27.3589 19.5806 28.4401 16.1641 26.9599 13.4024C26.4537 12.4582 25.7138 11.7126 24.8463 11.1985L25.9052 10.6518C28.7191 9.19903 29.8002 5.78252 28.32 3.02085C26.8398 0.259123 23.3588 -0.801976 20.5448 0.650838L4.4381 8.96658Z" fill="url(#paint0_linear_13497_16583)"/>
<path id="Vector_9" opacity="0.6" d="M22.6256 11.3531L7.78634 9.25703C5.18444 8.8895 2.77162 10.6617 2.39715 13.2153L2.39688 13.2171C2.02241 15.7708 3.82809 18.1389 6.42998 18.5064L21.2692 20.6025C23.8711 20.97 26.284 19.1978 26.6584 16.6442L26.6587 16.6424C27.0332 14.0888 25.2275 11.7207 22.6256 11.3531Z" fill="#0C3A36"/>
</g>
<defs>
<linearGradient id="paint0_linear_13497_16583" x1="7.66667" y1="7.28185" x2="28.7832" y2="6.71173" gradientUnits="userSpaceOnUse">
<stop stop-color="#15343E"/>
<stop offset="0.572917" stop-color="#4FA874"/>
<stop offset="1" stop-color="#94C939"/>
</linearGradient>
</defs>
</svg>
