<svg width="16" height="16" viewBox="0 0 16 16" fill="none" xmlns="http://www.w3.org/2000/svg">
<g id="Frame">
<path id="Vector" d="M6.39961 7.19844C7.03613 7.19844 7.64658 6.94558 8.09667 6.49549C8.54675 6.04541 8.79961 5.43496 8.79961 4.79844C8.79961 4.16192 8.54675 3.55147 8.09667 3.10138C7.64658 2.65129 7.03613 2.39844 6.39961 2.39844C5.76309 2.39844 5.15264 2.65129 4.70255 3.10138C4.25247 3.55147 3.99961 4.16192 3.99961 4.79844C3.99961 5.43496 4.25247 6.04541 4.70255 6.49549C5.15264 6.94558 5.76309 7.19844 6.39961 7.19844ZM6.39961 8.79844C7.67265 8.79844 8.89355 9.30415 9.79372 10.2043C10.6939 11.1045 11.1996 12.3254 11.1996 13.5984H1.59961C1.59961 12.3254 2.10532 11.1045 3.0055 10.2043C3.90567 9.30415 5.12657 8.79844 6.39961 8.79844ZM12.7996 5.59844C12.7996 5.38626 12.7153 5.18278 12.5653 5.03275C12.4153 4.88272 12.2118 4.79844 11.9996 4.79844C11.7874 4.79844 11.584 4.88272 11.4339 5.03275C11.2839 5.18278 11.1996 5.38626 11.1996 5.59844V6.39844H10.3996C10.1874 6.39844 9.98395 6.48272 9.83392 6.63275C9.6839 6.78278 9.59961 6.98626 9.59961 7.19844C9.59961 7.41061 9.6839 7.61409 9.83392 7.76412C9.98395 7.91415 10.1874 7.99844 10.3996 7.99844H11.1996V8.79844C11.1996 9.01061 11.2839 9.21409 11.4339 9.36412C11.584 9.51415 11.7874 9.59844 11.9996 9.59844C12.2118 9.59844 12.4153 9.51415 12.5653 9.36412C12.7153 9.21409 12.7996 9.01061 12.7996 8.79844V7.99844H13.5996C13.8118 7.99844 14.0153 7.91415 14.1653 7.76412C14.3153 7.61409 14.3996 7.41061 14.3996 7.19844C14.3996 6.98626 14.3153 6.78278 14.1653 6.63275C14.0153 6.48272 13.8118 6.39844 13.5996 6.39844H12.7996V5.59844Z" fill="#81C14B"/>
</g>
</svg>
