<svg width="29" height="38" viewBox="0 0 29 38" fill="none" xmlns="http://www.w3.org/2000/svg">
<path d="M16.6786 1.10874L16.6787 1.10881L27.8934 12.5384L27.8935 12.5384C28.1522 12.802 28.2999 13.1623 28.3 13.5407C28.3 13.5407 28.3 13.5408 28.3 13.5408V33.7778C28.3 34.7162 27.9341 35.6135 27.2869 36.2731C26.6402 36.9322 25.7659 37.3 24.8571 37.3H4.14286C3.23409 37.3 2.35979 36.9322 1.71306 36.2731C1.06589 35.6135 0.7 34.7162 0.7 33.7778V4.22222C0.7 3.28383 1.06589 2.38648 1.71306 1.72692C2.35979 1.0678 3.23409 0.7 4.14286 0.7H15.7137C15.7138 0.7 15.7138 0.7 15.7139 0.7C16.0732 0.700119 16.4205 0.845547 16.6786 1.10874Z" stroke="black" stroke-width="1.4" stroke-linecap="round" stroke-linejoin="round"/>
<path d="M10.0469 20.3398V16.3125H10.7969V20.3398C10.7969 20.7148 10.7201 21.0312 10.5664 21.2891C10.4128 21.5469 10.2005 21.7435 9.92969 21.8789C9.66146 22.0117 9.35286 22.0781 9.00391 22.0781C8.65495 22.0781 8.34505 22.0182 8.07422 21.8984C7.80339 21.7786 7.59115 21.5964 7.4375 21.3516C7.28385 21.1068 7.20703 20.7982 7.20703 20.4258H7.96094C7.96094 20.6654 8.00521 20.862 8.09375 21.0156C8.18229 21.1693 8.30469 21.2826 8.46094 21.3555C8.61979 21.4284 8.80078 21.4648 9.00391 21.4648C9.20182 21.4648 9.37891 21.4232 9.53516 21.3398C9.69401 21.2539 9.81901 21.1276 9.91016 20.9609C10.0013 20.7917 10.0469 20.5846 10.0469 20.3398ZM14.1719 19.7695H12.6523V19.1562H14.1719C14.4661 19.1562 14.7044 19.1094 14.8867 19.0156C15.069 18.9219 15.2018 18.7917 15.2852 18.625C15.3711 18.4583 15.4141 18.2682 15.4141 18.0547C15.4141 17.8594 15.3711 17.6758 15.2852 17.5039C15.2018 17.332 15.069 17.194 14.8867 17.0898C14.7044 16.9831 14.4661 16.9297 14.1719 16.9297H12.8281V22H12.0742V16.3125H14.1719C14.6016 16.3125 14.9648 16.3867 15.2617 16.5352C15.5586 16.6836 15.7839 16.8893 15.9375 17.1523C16.0911 17.4128 16.168 17.7109 16.168 18.0469C16.168 18.4115 16.0911 18.7227 15.9375 18.9805C15.7839 19.2383 15.5586 19.4349 15.2617 19.5703C14.9648 19.7031 14.6016 19.7695 14.1719 19.7695ZM21.3242 19.168V21.25C21.2539 21.3542 21.1419 21.4714 20.9883 21.6016C20.8346 21.7292 20.6224 21.8411 20.3516 21.9375C20.0833 22.0312 19.737 22.0781 19.3125 22.0781C18.9661 22.0781 18.6471 22.0182 18.3555 21.8984C18.0664 21.776 17.8151 21.599 17.6016 21.3672C17.3906 21.1328 17.2266 20.849 17.1094 20.5156C16.9948 20.1797 16.9375 19.7995 16.9375 19.375V18.9336C16.9375 18.5091 16.987 18.1302 17.0859 17.7969C17.1875 17.4635 17.3359 17.181 17.5312 16.9492C17.7266 16.7148 17.9661 16.5378 18.25 16.418C18.5339 16.2956 18.8594 16.2344 19.2266 16.2344C19.6615 16.2344 20.0247 16.3099 20.3164 16.4609C20.6107 16.6094 20.8398 16.8151 21.0039 17.0781C21.1706 17.3411 21.2773 17.6406 21.3242 17.9766H20.5703C20.5365 17.7708 20.4688 17.5833 20.3672 17.4141C20.2682 17.2448 20.1263 17.1094 19.9414 17.0078C19.7565 16.9036 19.5182 16.8516 19.2266 16.8516C18.9635 16.8516 18.7357 16.8997 18.543 16.9961C18.3503 17.0924 18.1914 17.2305 18.0664 17.4102C17.9414 17.5898 17.8477 17.8073 17.7852 18.0625C17.7253 18.3177 17.6953 18.6055 17.6953 18.9258V19.375C17.6953 19.7031 17.7331 19.9961 17.8086 20.2539C17.8867 20.5117 17.9974 20.7318 18.1406 20.9141C18.2839 21.0938 18.4544 21.2305 18.6523 21.3242C18.8529 21.418 19.0742 21.4648 19.3164 21.4648C19.5846 21.4648 19.8021 21.4427 19.9688 21.3984C20.1354 21.3516 20.2656 21.2969 20.3594 21.2344C20.4531 21.1693 20.5247 21.1081 20.5742 21.0508V19.7773H19.2578V19.168H21.3242Z" fill="black"/>
</svg>
