<svg width="34" height="34" viewBox="0 0 34 34" fill="none" xmlns="http://www.w3.org/2000/svg">
<g id="Frame" clip-path="url(#clip0_16059_25899)">
<path id="Vector" d="M14.414 16.9701C14.4142 18.0308 14.8356 19.0479 15.5856 19.7979C16.3356 20.5479 17.3528 20.9693 18.4134 20.9695L24.0703 20.9695C25.1189 20.9513 26.1185 20.5219 26.8537 19.7739C27.5888 19.0258 28.0008 18.0189 28.0008 16.9701C28.0008 15.9213 27.5888 14.9144 26.8537 14.1664C26.1185 13.4183 25.1189 12.9889 24.0703 12.9707L22.5146 12.9707M19.5844 16.9701C19.5842 15.9095 19.1628 14.8923 18.4128 14.1423C17.6628 13.3923 16.6456 12.9709 15.585 12.9707L9.92813 12.9707C9.39708 12.9615 8.8695 13.0581 8.37618 13.255C7.88287 13.4518 7.4337 13.7449 7.05488 14.1172C6.67606 14.4895 6.37518 14.9335 6.16979 15.4233C5.9644 15.9132 5.85862 16.439 5.85862 16.9701C5.85862 17.5012 5.9644 18.0271 6.16979 18.5169C6.37517 19.0067 6.67606 19.4507 7.05488 19.823C7.4337 20.1953 7.88287 20.4884 8.37618 20.6853C8.8695 20.8821 9.39708 20.9787 9.92813 20.9695L11.4859 20.9702L19.5844 16.9701Z" stroke="#4F4F4F" stroke-opacity="0.5" stroke-width="2" stroke-linecap="round" stroke-linejoin="round"/>
</g>
<defs>
<clipPath id="clip0_16059_25899">
<rect width="24" height="24" fill="white" transform="translate(17) rotate(45)"/>
</clipPath>
</defs>
</svg>
