<svg width="68" height="68" viewBox="0 0 68 68" fill="none" xmlns="http://www.w3.org/2000/svg">
<g id="Frame 35989">
<circle id="Ellipse 1199" opacity="0.2" cx="34" cy="34" r="34" fill="#81C14B"/>
<path id="Vector" d="M31.5111 36.4889C31.9166 36.9029 32.4007 37.2317 32.9349 37.4562C33.4691 37.6806 34.0428 37.7963 34.6222 37.7963C35.2017 37.7963 35.7754 37.6806 36.3096 37.4562C36.8438 37.2317 37.3279 36.9029 37.7334 36.4889L42.7113 31.5111C43.5364 30.6859 44 29.5668 44 28.3999C44 27.233 43.5364 26.1138 42.7113 25.2887C41.8862 24.4636 40.767 24 39.6001 24C38.4332 24 37.3141 24.4636 36.4889 25.2887L35.8667 25.9109M36.4889 31.5111C36.0834 31.0971 35.5993 30.7683 35.0651 30.5438C34.5309 30.3194 33.9572 30.2037 33.3778 30.2037C32.7983 30.2037 32.2246 30.3194 31.6904 30.5438C31.1562 30.7683 30.6721 31.0971 30.2666 31.5111L25.2887 36.4889C24.4636 37.3141 24 38.4332 24 39.6001C24 40.767 24.4636 41.8862 25.2887 42.7113C26.1138 43.5364 27.233 44 28.3999 44C29.5668 44 30.6859 43.5364 31.5111 42.7113L32.1333 42.0891" stroke="#81C14B" stroke-width="1.8" stroke-linecap="round" stroke-linejoin="round"/>
</g>
</svg>
