<svg width="16" height="16" viewBox="0 0 16 16" fill="none" xmlns="http://www.w3.org/2000/svg">
<g id="Frame 36034">
<g id="Group 35813">
<path id="Vector (Stroke)" fill-rule="evenodd" clip-rule="evenodd" d="M5.94385 5.9419C6.48941 5.39634 7.22935 5.08984 8.00089 5.08984C8.77243 5.08984 9.51237 5.39634 10.0579 5.9419C10.6035 6.48746 10.91 7.2274 10.91 7.99893C10.91 8.77047 10.6035 9.51041 10.0579 10.056C9.51237 10.6015 8.77243 10.908 8.00089 10.908C7.22935 10.908 6.48941 10.6015 5.94385 10.056C5.39829 9.51041 5.0918 8.77047 5.0918 7.99893C5.0918 7.2274 5.39829 6.48746 5.94385 5.9419ZM8.00089 6.54439C7.61512 6.54439 7.24515 6.69764 6.97237 6.97042C6.69959 7.2432 6.54634 7.61316 6.54634 7.99893C6.54634 8.3847 6.69959 8.75467 6.97237 9.02745C7.24515 9.30023 7.61512 9.45348 8.00089 9.45348C8.38666 9.45348 8.75663 9.30023 9.02941 9.02745C9.30219 8.75467 9.45543 8.3847 9.45543 7.99893C9.45543 7.61316 9.30219 7.2432 9.02941 6.97042C8.75663 6.69764 8.38666 6.54439 8.00089 6.54439Z" fill="#37A1F6"/>
<path id="Vector (Stroke)_2" fill-rule="evenodd" clip-rule="evenodd" d="M8 0C8.40166 0 8.72727 0.325611 8.72727 0.727273V1.49505C10.1957 1.65918 11.5735 2.31681 12.6283 3.37166C13.6832 4.42652 14.3408 5.80435 14.5049 7.27273H15.2727C15.6744 7.27273 16 7.59834 16 8C16 8.40166 15.6744 8.72727 15.2727 8.72727H14.5049C14.3408 10.1957 13.6832 11.5735 12.6283 12.6283C11.5735 13.6832 10.1957 14.3408 8.72727 14.5049V15.2727C8.72727 15.6744 8.40166 16 8 16C7.59834 16 7.27273 15.6744 7.27273 15.2727V14.5049C5.80435 14.3408 4.42652 13.6832 3.37166 12.6283C2.31681 11.5735 1.65918 10.1957 1.49505 8.72727H0.727273C0.325611 8.72727 0 8.40166 0 8C0 7.59834 0.325611 7.27273 0.727273 7.27273H1.49505C1.65918 5.80435 2.31681 4.42652 3.37166 3.37166C4.42652 2.31681 5.80435 1.65918 7.27273 1.49505V0.727273C7.27273 0.325611 7.59834 0 8 0ZM8 2.90909C6.64981 2.90909 5.35491 3.44545 4.40018 4.40018C3.44545 5.35491 2.90909 6.64981 2.90909 8C2.90909 9.35019 3.44545 10.6451 4.40018 11.5998C5.35491 12.5545 6.64981 13.0909 8 13.0909C9.35019 13.0909 10.6451 12.5545 11.5998 11.5998C12.5545 10.6451 13.0909 9.35019 13.0909 8C13.0909 6.64981 12.5545 5.35491 11.5998 4.40018C10.6451 3.44545 9.35019 2.90909 8 2.90909Z" fill="#37A1F6"/>
</g>
</g>
</svg>
