<svg width="12" height="12" viewBox="0 0 12 12" fill="none" xmlns="http://www.w3.org/2000/svg">
<g id="microphone" clip-path="url(#clip0_17440_8884)">
<path id="Vector" d="M9.60799 5.17391C9.60799 6.03491 9.26596 6.86063 8.65715 7.46945C8.04833 8.07826 7.2226 8.42029 6.36161 8.42029M6.36161 8.42029C5.50062 8.42029 4.67489 8.07826 4.06608 7.46945C3.45726 6.86063 3.11523 6.03491 3.11523 5.17391M6.36161 8.42029V10.2754M6.36161 10.2754H4.50654M6.36161 10.2754H8.21668M6.36161 6.56522C5.99261 6.56522 5.63873 6.41863 5.37781 6.15771C5.11689 5.89679 4.97031 5.54291 4.97031 5.17391V2.3913C4.97031 2.02231 5.11689 1.66842 5.37781 1.4075C5.63873 1.14658 5.99261 1 6.36161 1C6.73061 1 7.08449 1.14658 7.34541 1.4075C7.60633 1.66842 7.75292 2.02231 7.75292 2.3913V5.17391C7.75292 5.54291 7.60633 5.89679 7.34541 6.15771C7.08449 6.41863 6.73061 6.56522 6.36161 6.56522Z" stroke="#4F4F4F" stroke-width="0.978261" stroke-linecap="round" stroke-linejoin="round"/>
</g>
<defs>
<clipPath id="clip0_17440_8884">
<rect width="11.1304" height="11.1304" fill="white" transform="translate(0.796875 0.0742188)"/>
</clipPath>
</defs>
</svg>
