<svg width="29" height="38" viewBox="0 0 29 38" fill="none" xmlns="http://www.w3.org/2000/svg">
<path d="M16.6786 1.10874L16.6787 1.10881L27.8934 12.5384L27.8935 12.5384C28.1522 12.802 28.2999 13.1623 28.3 13.5407C28.3 13.5407 28.3 13.5408 28.3 13.5408V33.7778C28.3 34.7162 27.9341 35.6135 27.2869 36.2731C26.6402 36.9322 25.7659 37.3 24.8571 37.3H4.14286C3.23409 37.3 2.35979 36.9322 1.71306 36.2731C1.06589 35.6135 0.7 34.7162 0.7 33.7778V4.22222C0.7 3.28383 1.06589 2.38648 1.71306 1.72692C2.35979 1.0678 3.23409 0.7 4.14286 0.7H15.7137C15.7138 0.7 15.7138 0.7 15.7139 0.7C16.0732 0.700119 16.4205 0.845547 16.6786 1.10874Z" stroke="black" stroke-width="1.4" stroke-linecap="round" stroke-linejoin="round"/>
<path d="M6.89844 16.3125H7.62891L9.49219 20.9492L11.3516 16.3125H12.0859L9.77344 22H9.20312L6.89844 16.3125ZM6.66016 16.3125H7.30469L7.41016 19.7812V22H6.66016V16.3125ZM11.6758 16.3125H12.3203V22H11.5703V19.7812L11.6758 16.3125ZM15.7422 19.7695H14.2227V19.1562H15.7422C16.0365 19.1562 16.2747 19.1094 16.457 19.0156C16.6393 18.9219 16.7721 18.7917 16.8555 18.625C16.9414 18.4583 16.9844 18.2682 16.9844 18.0547C16.9844 17.8594 16.9414 17.6758 16.8555 17.5039C16.7721 17.332 16.6393 17.194 16.457 17.0898C16.2747 16.9831 16.0365 16.9297 15.7422 16.9297H14.3984V22H13.6445V16.3125H15.7422C16.1719 16.3125 16.5352 16.3867 16.832 16.5352C17.1289 16.6836 17.3542 16.8893 17.5078 17.1523C17.6615 17.4128 17.7383 17.7109 17.7383 18.0469C17.7383 18.4115 17.6615 18.7227 17.5078 18.9805C17.3542 19.2383 17.1289 19.4349 16.832 19.5703C16.5352 19.7031 16.1719 19.7695 15.7422 19.7695ZM19.5586 18.8008H20.0742C20.3268 18.8008 20.5352 18.7591 20.6992 18.6758C20.8659 18.5898 20.9896 18.474 21.0703 18.3281C21.1536 18.1797 21.1953 18.013 21.1953 17.8281C21.1953 17.6094 21.1589 17.4258 21.0859 17.2773C21.013 17.1289 20.9036 17.0169 20.7578 16.9414C20.612 16.8659 20.4271 16.8281 20.2031 16.8281C20 16.8281 19.8203 16.8685 19.6641 16.9492C19.5104 17.0273 19.3893 17.1393 19.3008 17.2852C19.2148 17.431 19.1719 17.6029 19.1719 17.8008H18.4492C18.4492 17.5117 18.5221 17.2487 18.668 17.0117C18.8138 16.7747 19.0182 16.5859 19.2812 16.4453C19.5469 16.3047 19.8542 16.2344 20.2031 16.2344C20.5469 16.2344 20.8477 16.2956 21.1055 16.418C21.3633 16.5378 21.5638 16.7174 21.707 16.957C21.8503 17.194 21.9219 17.4896 21.9219 17.8438C21.9219 17.987 21.888 18.1406 21.8203 18.3047C21.7552 18.4661 21.6523 18.6172 21.5117 18.7578C21.3737 18.8984 21.194 19.0143 20.9727 19.1055C20.7513 19.194 20.4857 19.2383 20.1758 19.2383H19.5586V18.8008ZM19.5586 19.3945V18.9609H20.1758C20.5378 18.9609 20.8372 19.0039 21.0742 19.0898C21.3112 19.1758 21.4974 19.2904 21.6328 19.4336C21.7708 19.5768 21.8672 19.7344 21.9219 19.9062C21.9792 20.0755 22.0078 20.2448 22.0078 20.4141C22.0078 20.6797 21.9622 20.9154 21.8711 21.1211C21.7826 21.3268 21.6562 21.5013 21.4922 21.6445C21.3307 21.7878 21.1406 21.8958 20.9219 21.9688C20.7031 22.0417 20.4648 22.0781 20.207 22.0781C19.9596 22.0781 19.7266 22.043 19.5078 21.9727C19.2917 21.9023 19.1003 21.8008 18.9336 21.668C18.7669 21.5326 18.6367 21.3672 18.543 21.1719C18.4492 20.974 18.4023 20.7487 18.4023 20.4961H19.125C19.125 20.694 19.168 20.8672 19.2539 21.0156C19.3424 21.1641 19.4674 21.2799 19.6289 21.3633C19.793 21.444 19.9857 21.4844 20.207 21.4844C20.4284 21.4844 20.6185 21.4466 20.7773 21.3711C20.9388 21.293 21.0625 21.1758 21.1484 21.0195C21.237 20.8633 21.2812 20.6667 21.2812 20.4297C21.2812 20.1927 21.2318 19.9987 21.1328 19.8477C21.0339 19.694 20.8932 19.5807 20.7109 19.5078C20.5312 19.4323 20.319 19.3945 20.0742 19.3945H19.5586Z" fill="black"/>
</svg>
