<svg width="29" height="38" viewBox="0 0 29 38" fill="none" xmlns="http://www.w3.org/2000/svg">
<path d="M16.6786 1.10874L16.6787 1.10881L27.8934 12.5384L27.8935 12.5384C28.1522 12.802 28.2999 13.1623 28.3 13.5407C28.3 13.5407 28.3 13.5408 28.3 13.5408V33.7778C28.3 34.7162 27.9341 35.6135 27.2869 36.2731C26.6402 36.9322 25.7659 37.3 24.8571 37.3H4.14286C3.23409 37.3 2.35979 36.9322 1.71306 36.2731C1.06589 35.6135 0.7 34.7162 0.7 33.7778V4.22222C0.7 3.28383 1.06589 2.38648 1.71306 1.72692C2.35979 1.0678 3.23409 0.7 4.14286 0.7H15.7137C15.7138 0.7 15.7138 0.7 15.7139 0.7C16.0732 0.700119 16.4205 0.845547 16.6786 1.10874Z" stroke="black" stroke-width="1.4" stroke-linecap="round" stroke-linejoin="round"/>
<path d="M6.89844 16.3125H7.62891L9.49219 20.9492L11.3516 16.3125H12.0859L9.77344 22H9.20312L6.89844 16.3125ZM6.66016 16.3125H7.30469L7.41016 19.7812V22H6.66016V16.3125ZM11.6758 16.3125H12.3203V22H11.5703V19.7812L11.6758 16.3125ZM15.7422 19.7695H14.2227V19.1562H15.7422C16.0365 19.1562 16.2747 19.1094 16.457 19.0156C16.6393 18.9219 16.7721 18.7917 16.8555 18.625C16.9414 18.4583 16.9844 18.2682 16.9844 18.0547C16.9844 17.8594 16.9414 17.6758 16.8555 17.5039C16.7721 17.332 16.6393 17.194 16.457 17.0898C16.2747 16.9831 16.0365 16.9297 15.7422 16.9297H14.3984V22H13.6445V16.3125H15.7422C16.1719 16.3125 16.5352 16.3867 16.832 16.5352C17.1289 16.6836 17.3542 16.8893 17.5078 17.1523C17.6615 17.4128 17.7383 17.7109 17.7383 18.0469C17.7383 18.4115 17.6615 18.7227 17.5078 18.9805C17.3542 19.2383 17.1289 19.4349 16.832 19.5703C16.5352 19.7031 16.1719 19.7695 15.7422 19.7695ZM22.3477 20.0859V20.6797H18.2383V20.2539L20.7852 16.3125H21.375L20.7422 17.4531L19.0586 20.0859H22.3477ZM21.5547 16.3125V22H20.832V16.3125H21.5547Z" fill="black"/>
</svg>
