<svg width="25" height="24" viewBox="0 0 25 24" fill="none" xmlns="http://www.w3.org/2000/svg">
<g id="auto_read_pause">
<mask id="mask0_13497_16093" style="mask-type:alpha" maskUnits="userSpaceOnUse" x="0" y="0" width="25" height="24">
<rect id="Bounding box" x="0.5" width="24" height="24" fill="#D9D9D9"/>
</mask>
<g mask="url(#mask0_13497_16093)">
<path id="Vector 740" d="M6.92857 7.95H17.7285M6.92857 11.55H12.3286M5.50003 16.86H6.4286C6.70474 16.86 6.9286 17.0839 6.9286 17.36V20.7911C6.9286 20.8751 7.02588 20.9217 7.09131 20.869L11.9342 16.9705C12.023 16.899 12.1336 16.86 12.2477 16.86H19.5C20.6046 16.86 21.5 15.9646 21.5 14.86V5C21.5 3.89543 20.6046 3 19.5 3H5.50003C4.39546 3 3.50003 3.89543 3.50003 5V14.86C3.50003 15.9646 4.39546 16.86 5.50003 16.86Z" stroke="black" stroke-width="1.5" stroke-linecap="round"/>
</g>
</g>
</svg>
