<svg width="17" height="16" viewBox="0 0 17 16" fill="none" xmlns="http://www.w3.org/2000/svg">
<path id="Union" d="M1.88174 8.29024C1.26586 7.08546 1.83727 5.65336 3.15804 5.09156L12.2455 1.22609C13.5663 0.664289 15.1363 1.18553 15.7521 2.39031C16.368 3.5951 15.7966 5.0272 14.4758 5.589L13.7831 5.88368C14.3516 6.10998 14.8355 6.51904 15.1183 7.07219C15.7341 8.27697 15.1627 9.70907 13.842 10.2709L12.5974 10.8002L12.6679 15L9.11422 12.2819L4.75445 14.1363C3.43369 14.6981 1.86373 14.1769 1.24785 12.9721C0.631972 11.7673 1.20339 10.3352 2.52415 9.77343L3.21693 9.47875C2.64839 9.25245 2.1645 8.84339 1.88174 8.29024Z" fill="url(#paint0_linear_13895_32435)" stroke="#999999" stroke-width="0.6"/>
<defs>
<linearGradient id="paint0_linear_13895_32435" x1="1" y1="8" x2="16" y2="8" gradientUnits="userSpaceOnUse">
<stop stop-color="#CBCBCB"/>
<stop offset="1" stop-color="#CBCBCB" stop-opacity="0"/>
</linearGradient>
</defs>
</svg>
