<svg width="14" height="12" viewBox="0 0 14 12" fill="none" xmlns="http://www.w3.org/2000/svg">
<path id="Vector" fill-rule="evenodd" clip-rule="evenodd" d="M7.3295 0.0652426C7.48922 0.130167 7.62573 0.240063 7.72175 0.381038C7.81777 0.522012 7.869 0.687733 7.86896 0.857248V11.143C7.86892 11.3125 7.81762 11.4782 7.72155 11.6191C7.62547 11.7601 7.48893 11.8699 7.32919 11.9348C7.16945 11.9996 6.99368 12.0166 6.82411 11.9835C6.65453 11.9505 6.49875 11.8689 6.37648 11.749L3.13534 8.57159H0.874328C0.642442 8.57159 0.420053 8.48128 0.256085 8.32053C0.0921164 8.15979 0 7.94177 0 7.71444V4.28584C0 4.05851 0.0921164 3.84049 0.256085 3.67975C0.420053 3.519 0.642442 3.42869 0.874328 3.42869H3.13534L6.37648 0.251244C6.49875 0.131301 6.65456 0.0496067 6.8242 0.0164976C6.99384 -0.0166114 7.16969 0.000352362 7.3295 0.0652426ZM8.99946 3.67984C9.16342 3.51915 9.38577 3.42888 9.61761 3.42888C9.84945 3.42888 10.0718 3.51915 10.2358 3.67984L11.3663 4.78813L12.4968 3.67984C12.5774 3.59797 12.6739 3.53267 12.7806 3.48775C12.8873 3.44283 13.002 3.41918 13.1181 3.41819C13.2342 3.41721 13.3493 3.43889 13.4567 3.48199C13.5642 3.52509 13.6618 3.58873 13.7439 3.66921C13.826 3.74969 13.8909 3.8454 13.9349 3.95074C13.9789 4.05608 14.001 4.16895 14 4.28276C13.999 4.39657 13.9748 4.50905 13.929 4.61362C13.8832 4.7182 13.8166 4.81278 13.7331 4.89185L12.6026 6.00014L13.7331 7.10844C13.8923 7.2701 13.9805 7.48661 13.9785 7.71135C13.9765 7.9361 13.8845 8.15108 13.7224 8.31C13.5603 8.46892 13.341 8.55907 13.1118 8.56102C12.8825 8.56298 12.6617 8.47658 12.4968 8.32044L11.3663 7.21215L10.2358 8.32044C10.0709 8.47658 9.85001 8.56298 9.62076 8.56102C9.39151 8.55907 9.17222 8.46892 9.01011 8.31C8.84801 8.15108 8.75605 7.9361 8.75406 7.71135C8.75207 7.48661 8.8402 7.2701 8.99946 7.10844L10.13 6.00014L8.99946 4.89185C8.83555 4.73111 8.74347 4.51313 8.74347 4.28584C8.74347 4.05856 8.83555 3.84058 8.99946 3.67984Z" fill="#81C14B"/>
</svg>
