<svg width="13" height="9" viewBox="0 0 13 9" fill="none" xmlns="http://www.w3.org/2000/svg">
<g id="Cellular Connection">
<path id="Cellular Connection_2" fill-rule="evenodd" clip-rule="evenodd" d="M12.1299 1.99983C12.1299 1.63964 11.8379 1.34766 11.4778 1.34766H10.8256C10.4654 1.34766 10.1734 1.63964 10.1734 1.99983V7.652C10.1734 8.01219 10.4654 8.30418 10.8256 8.30418H11.4778C11.8379 8.30418 12.1299 8.01219 12.1299 7.652V1.99983ZM7.78189 2.86855H8.43406C8.79425 2.86855 9.08624 3.16053 9.08624 3.52072V7.65115C9.08624 8.01134 8.79425 8.30333 8.43406 8.30333H7.78189C7.4217 8.30333 7.12971 8.01134 7.12971 7.65115V3.52072C7.12971 3.16053 7.4217 2.86855 7.78189 2.86855ZM5.39101 4.39198H4.73883C4.37865 4.39198 4.08666 4.68397 4.08666 5.04416V7.65285C4.08666 8.01304 4.37865 8.30503 4.73883 8.30503H5.39101C5.75119 8.30503 6.04318 8.01304 6.04318 7.65285V5.04416C6.04318 4.68397 5.75119 4.39198 5.39101 4.39198ZM2.99949 6.34851C2.99949 5.98832 2.7075 5.69633 2.34732 5.69633H1.69514C1.33496 5.69633 1.04297 5.98832 1.04297 6.34851V7.65285C1.04297 8.01304 1.33496 8.30503 1.69514 8.30503H2.34732C2.7075 8.30503 2.99949 8.01304 2.99949 7.65285V6.34851Z" fill="#333333"/>
</g>
</svg>
