<svg width="273" height="248" viewBox="0 0 273 248" fill="none" xmlns="http://www.w3.org/2000/svg">
<ellipse cx="136.5" cy="92.5" rx="136.5" ry="84.5" fill="#F2F8EC"/>
<path d="M82.8284 196.757C82.212 197.374 81.504 197.726 80.7863 197.866L80.9788 198.848C79.016 199.233 76.9453 198.375 75.8298 196.715L76.6598 196.157C76.2518 195.55 76 194.801 76 193.929V191.508H75V186.667H76V181.825H75V176.984H76V172.142H75V167.301H76V162.46H75V157.618H76V152.777H75V147.935H76V143.094H75V138.252H76V133.411H75V128.569H76V123.728H75V118.887H76V114.045H75V109.204H76V104.362H75V99.5207H76V97.1C76 96.3412 76.0663 95.6148 76.1972 94.9196L75.2145 94.7347C75.5114 93.1572 76.1167 91.7043 77.0303 90.3761L77.8542 90.9429C78.255 90.3602 78.7233 89.7996 79.2615 89.2615C79.7996 88.7233 80.3602 88.255 80.9429 87.8542L80.3761 87.0303C81.7043 86.1167 83.1572 85.5114 84.7347 85.2145L84.9196 86.1972C85.6148 86.0663 86.3412 86 87.1 86H89.52V85H94.36V86H99.2V85H104.04V86H108.88V85H113.72V86H118.56V85H123.4V86H128.24V85H133.08V86H137.92V85H142.76V86H147.6V85H152.44V86H157.28V85H162.12V86H166.96V85H171.8V86H176.64V85H181.48V86H183.9C184.659 86 185.385 86.0663 186.08 86.1972L186.265 85.2145C187.843 85.5114 189.296 86.1167 190.624 87.0303L190.057 87.8542C190.64 88.255 191.2 88.7233 191.739 89.2615C192.277 89.7996 192.745 90.3602 193.146 90.9429L193.97 90.3761C194.883 91.7043 195.489 93.1572 195.786 94.7347L194.803 94.9196C194.934 95.6148 195 96.3412 195 97.1V99.6929H196V104.879H195V110.064H196V115.25H195V120.436H196V125.621H195V130.807H196V135.993H195V141.179H196V146.364H195V151.55H196V156.736H195V161.921H196V167.107H195V169.7C195 170.459 194.934 171.185 194.803 171.88L195.786 172.065C195.489 173.643 194.883 175.096 193.97 176.424L193.146 175.857C192.745 176.44 192.277 177 191.739 177.539C191.2 178.077 190.64 178.545 190.057 178.946L190.624 179.77C189.296 180.683 187.843 181.289 186.265 181.586L186.08 180.603C185.385 180.734 184.659 180.8 183.9 180.8H181.318V181.8H176.154V180.8H170.989V181.8H165.825V180.8H160.661V181.8H155.496V180.8H150.332V181.8H145.168V180.8H140.003V181.8H134.839V180.8H129.675V181.8H124.51V180.8H119.346V181.8H114.182V180.8H109.018V181.8H103.853V180.8H101.271C99.6798 180.8 98.1536 181.432 97.0284 182.557L95.2534 184.332L95.9605 185.039L92.4105 188.589L91.7034 187.882L88.1534 191.432L88.8605 192.139L85.3105 195.689L84.6034 194.982L82.8284 196.757Z" fill="white" stroke="#81C14B" stroke-width="2" stroke-dasharray="5 5"/>
<ellipse cx="169" cy="85" rx="17" ry="20" fill="#81C14B"/>
<path d="M161 84.9595C161 90.7085 162.896 95 169 95C175.104 95 177 90.7085 177 84.9595C177 79.2645 175.104 75 169 75C162.896 75 161 79.2645 161 84.9595ZM172.911 84.9595C172.911 88.4683 172.496 91.4912 169 91.4912C165.504 91.4912 165.089 88.4683 165.089 84.9595C165.089 81.5857 165.504 78.5088 169 78.5088C172.496 78.5088 172.911 81.5857 172.911 84.9595Z" fill="white"/>
<path d="M95.5 121H165.5" stroke="#CAE5B3" stroke-width="5" stroke-linecap="round"/>
<path d="M95.5 135H145.5" stroke="#CAE5B3" stroke-width="5" stroke-linecap="round"/>
<path d="M95 149H125" stroke="#CAE5B3" stroke-width="5" stroke-linecap="round"/>
<path d="M52.5862 105C35.5883 75.2829 68.5297 36.5577 107.211 32.0021M107.211 32.0021C112.677 31.3585 118.256 31.3969 123.826 32.2393C158.142 37.429 135.841 55.8581 112.252 47.4634C104.16 44.5838 102.688 38.5509 107.211 32.0021ZM107.211 32.0021C115.767 19.616 145.77 5.38397 193 7.14924" stroke="#81C14B"/>
<path d="M208.526 14.4126C207.911 15.4358 207.011 15.9644 205.825 15.9984C204.639 16.0323 203.656 15.5414 202.877 14.5257C202.505 14.0399 202.276 13.4829 202.19 12.8546C202.105 12.2264 202.187 11.6495 202.437 11.1239C201.325 10.039 200.859 8.78443 201.037 7.36026C201.216 5.93609 201.98 4.81266 203.331 3.98996C203.24 3.35435 203.319 2.75048 203.568 2.17833C203.817 1.60618 204.218 1.1033 204.771 0.669697C205.66 -0.0263528 206.69 -0.179823 207.863 0.209286C209.035 0.598396 209.761 1.30857 210.039 2.33981L210.52 4.15387C211.198 4.09456 211.864 4.19654 212.521 4.45982C213.177 4.7231 213.735 5.12303 214.193 5.6596L215.984 4.25609L217 5.58097L215.034 7.12141C215.291 7.7916 215.385 8.43742 215.313 9.05887C215.242 9.68032 214.996 10.3558 214.577 11.0853L216.067 13.0285L214.756 14.0554L213.368 12.2447C212.792 12.6489 212.159 12.9031 211.469 13.0073C210.78 13.1115 210.115 13.0496 209.474 12.8214L208.526 14.4126ZM203.802 9.3472C204.195 9.03911 204.603 8.7727 205.025 8.54797C205.447 8.32325 205.884 8.1402 206.335 7.99883C205.915 7.78577 205.523 7.50986 205.158 7.1711C204.794 6.83235 204.479 6.46019 204.215 6.05462C203.647 6.49964 203.326 7.01613 203.252 7.60409C203.179 8.19205 203.362 8.77308 203.802 9.3472ZM206.132 4.90616C206.493 5.37723 206.87 5.74745 207.263 6.01682C207.656 6.2862 208.247 6.57102 209.037 6.87128L208.098 3.36572C207.945 2.80189 207.662 2.4404 207.249 2.28125C206.835 2.12211 206.432 2.19658 206.039 2.50467C205.66 2.80134 205.479 3.14327 205.496 3.53046C205.513 3.91764 205.725 4.37621 206.132 4.90616ZM204.625 13.1564C204.907 13.5244 205.263 13.7227 205.693 13.7512C206.123 13.7797 206.431 13.6266 206.617 13.292L208.674 9.77188C207.993 9.85732 207.361 10.0053 206.776 10.2159C206.192 10.4265 205.71 10.6801 205.331 10.9768C204.851 11.3533 204.548 11.7261 204.423 12.0951C204.298 12.464 204.365 12.8178 204.625 13.1564ZM210.592 10.814C210.85 10.8471 211.134 10.8137 211.442 10.7137C211.75 10.6138 212.035 10.4611 212.297 10.2557C212.763 9.89059 213.038 9.42794 213.121 8.86776C213.204 8.30759 213.071 7.79933 212.721 7.34299C212.518 7.07801 212.282 6.86199 212.014 6.69492C211.746 6.52785 211.47 6.4261 211.186 6.38969L211.72 8.72821L210.592 10.814Z" fill="#81C14B"/>
<path d="M80.7162 226.08V236.44L73.8562 226.08H71.5762V240H73.8562V229.62L80.7162 240H82.9962V226.08H80.7162ZM96.4902 234.48C96.4902 231.02 94.0102 228.8 90.8702 228.8C87.7302 228.8 85.2502 231.02 85.2502 234.48C85.2502 237.94 87.6302 240.18 90.7702 240.18C93.9302 240.18 96.4902 237.94 96.4902 234.48ZM87.5702 234.48C87.5702 231.98 89.1102 230.78 90.8302 230.78C92.5302 230.78 94.1502 231.98 94.1502 234.48C94.1502 236.98 92.4702 238.2 90.7702 238.2C89.0502 238.2 87.5702 236.98 87.5702 234.48ZM103.939 240H106.219V230.48L110.479 240H112.059L116.299 230.48V240H118.579V226.1H116.139L111.279 237L106.399 226.1H103.939V240ZM126.216 230.72C127.916 230.72 129.256 231.8 129.296 233.5H123.196C123.436 231.76 124.676 230.72 126.216 230.72ZM131.376 236.72H128.916C128.496 237.58 127.716 238.26 126.316 238.26C124.636 238.26 123.336 237.16 123.176 235.34H131.596C131.656 234.96 131.676 234.6 131.676 234.22C131.676 230.98 129.456 228.8 126.316 228.8C123.056 228.8 120.816 231.02 120.816 234.48C120.816 237.94 123.156 240.18 126.316 240.18C129.016 240.18 130.756 238.64 131.376 236.72ZM142.14 236.92C142.02 232.94 135.8 234.18 135.8 231.96C135.8 231.22 136.44 230.72 137.66 230.72C138.9 230.72 139.64 231.38 139.72 232.34H142C141.88 230.14 140.24 228.8 137.74 228.8C135.14 228.8 133.5 230.22 133.5 231.98C133.5 236.02 139.9 234.78 139.9 236.94C139.9 237.7 139.2 238.26 137.88 238.26C136.62 238.26 135.76 237.52 135.68 236.62H133.32C133.42 238.62 135.28 240.18 137.92 240.18C140.52 240.18 142.14 238.78 142.14 236.92ZM152.824 236.92C152.704 232.94 146.484 234.18 146.484 231.96C146.484 231.22 147.124 230.72 148.344 230.72C149.584 230.72 150.324 231.38 150.404 232.34H152.684C152.564 230.14 150.924 228.8 148.424 228.8C145.824 228.8 144.184 230.22 144.184 231.98C144.184 236.02 150.584 234.78 150.584 236.94C150.584 237.7 149.884 238.26 148.564 238.26C147.304 238.26 146.444 237.52 146.364 236.62H144.004C144.104 238.62 145.964 240.18 148.604 240.18C151.204 240.18 152.824 238.78 152.824 236.92ZM154.527 234.44C154.527 237.84 156.827 240.18 159.687 240.18C161.527 240.18 162.847 239.3 163.547 238.36V240H165.847V228.98H163.547V230.58C162.867 229.68 161.587 228.8 159.727 228.8C156.827 228.8 154.527 231.04 154.527 234.44ZM163.547 234.48C163.547 236.86 161.927 238.2 160.207 238.2C158.507 238.2 156.867 236.82 156.867 234.44C156.867 232.06 158.507 230.78 160.207 230.78C161.927 230.78 163.547 232.12 163.547 234.48ZM168.082 234.44C168.082 237.84 170.382 240.18 173.282 240.18C175.082 240.18 176.402 239.28 177.102 238.34V240.18C177.102 242.38 175.782 243.46 174.022 243.46C172.442 243.46 171.222 242.68 170.882 241.54H168.622C168.902 243.98 171.082 245.44 174.022 245.44C177.462 245.44 179.402 243.18 179.402 240.18V228.98H177.102V230.58C176.422 229.64 175.082 228.8 173.282 228.8C170.382 228.8 168.082 231.04 168.082 234.44ZM177.102 234.48C177.102 236.86 175.482 238.2 173.762 238.2C172.062 238.2 170.422 236.82 170.422 234.44C170.422 232.06 172.062 230.78 173.762 230.78C175.482 230.78 177.102 232.12 177.102 234.48ZM187.036 230.72C188.736 230.72 190.076 231.8 190.116 233.5H184.016C184.256 231.76 185.496 230.72 187.036 230.72ZM192.196 236.72H189.736C189.316 237.58 188.536 238.26 187.136 238.26C185.456 238.26 184.156 237.16 183.996 235.34H192.416C192.476 234.96 192.496 234.6 192.496 234.22C192.496 230.98 190.276 228.8 187.136 228.8C183.876 228.8 181.636 231.02 181.636 234.48C181.636 237.94 183.976 240.18 187.136 240.18C189.836 240.18 191.576 238.64 192.196 236.72ZM202.96 236.92C202.84 232.94 196.62 234.18 196.62 231.96C196.62 231.22 197.26 230.72 198.48 230.72C199.72 230.72 200.46 231.38 200.54 232.34H202.82C202.7 230.14 201.06 228.8 198.56 228.8C195.96 228.8 194.32 230.22 194.32 231.98C194.32 236.02 200.72 234.78 200.72 236.94C200.72 237.7 200.02 238.26 198.7 238.26C197.44 238.26 196.58 237.52 196.5 236.62H194.14C194.24 238.62 196.1 240.18 198.74 240.18C201.34 240.18 202.96 238.78 202.96 236.92Z" fill="#81C14B"/>
</svg>
