<svg width="20" height="20" viewBox="0 0 20 20" fill="none" xmlns="http://www.w3.org/2000/svg">
<g id="paper-clip">
<rect x="0.43457" y="0.0898438" width="19.5652" height="19.5652" rx="9.78261" fill="#F5F5F5"/>
<path id="Vector" d="M11.702 7.00554L8.35515 10.7655C8.25808 10.8708 8.18065 10.9968 8.12738 11.1361C8.07412 11.2754 8.04608 11.4253 8.04491 11.5769C8.04374 11.7285 8.06945 11.8788 8.12055 12.0191C8.17166 12.1595 8.24712 12.2869 8.34255 12.3942C8.43798 12.5014 8.55146 12.5861 8.67636 12.6436C8.80127 12.701 8.9351 12.7299 9.07005 12.7285C9.205 12.7272 9.33836 12.6957 9.46236 12.6359C9.58636 12.576 9.6985 12.4891 9.79226 12.38L13.0517 8.62005C13.4219 8.18936 13.6268 7.61251 13.6222 7.01376C13.6176 6.41501 13.4038 5.84225 13.0269 5.41885C12.65 4.99545 12.1402 4.75529 11.6072 4.75009C11.0743 4.74488 10.5608 4.97506 10.1775 5.39103L6.91753 9.15042C6.34568 9.79286 6.02441 10.6642 6.02441 11.5728C6.02441 12.4813 6.34568 13.3526 6.91753 13.9951C7.48938 14.6375 8.26498 14.9984 9.0737 14.9984C9.88243 14.9984 10.658 14.6375 11.2299 13.9951L14.4095 10.4309" stroke="#4F4F4F" stroke-width="0.978261" stroke-linecap="round" stroke-linejoin="round"/>
</g>
</svg>
