<svg width="29" height="38" viewBox="0 0 29 38" fill="none" xmlns="http://www.w3.org/2000/svg">
<path d="M16.6786 1.10874L16.6787 1.10881L27.8934 12.5384L27.8935 12.5384C28.1522 12.802 28.2999 13.1623 28.3 13.5407C28.3 13.5407 28.3 13.5408 28.3 13.5408V33.7778C28.3 34.7162 27.9341 35.6135 27.2869 36.2731C26.6402 36.9322 25.7659 37.3 24.8571 37.3H4.14286C3.23409 37.3 2.35979 36.9322 1.71306 36.2731C1.06589 35.6135 0.7 34.7162 0.7 33.7778V4.22222C0.7 3.28383 1.06589 2.38648 1.71306 1.72692C2.35979 1.0678 3.23409 0.7 4.14286 0.7H15.7137C15.7138 0.7 15.7138 0.7 15.7139 0.7C16.0732 0.700119 16.4205 0.845547 16.6786 1.10874Z" stroke="black" stroke-width="1.4" stroke-linecap="round" stroke-linejoin="round"/>
<path d="M9.75781 19.7695H8.23828V19.1562H9.75781C10.0521 19.1562 10.2904 19.1094 10.4727 19.0156C10.6549 18.9219 10.7878 18.7917 10.8711 18.625C10.957 18.4583 11 18.2682 11 18.0547C11 17.8594 10.957 17.6758 10.8711 17.5039C10.7878 17.332 10.6549 17.194 10.4727 17.0898C10.2904 16.9831 10.0521 16.9297 9.75781 16.9297H8.41406V22H7.66016V16.3125H9.75781C10.1875 16.3125 10.5508 16.3867 10.8477 16.5352C11.1445 16.6836 11.3698 16.8893 11.5234 17.1523C11.6771 17.4128 11.7539 17.7109 11.7539 18.0469C11.7539 18.4115 11.6771 18.7227 11.5234 18.9805C11.3698 19.2383 11.1445 19.4349 10.8477 19.5703C10.5508 19.7031 10.1875 19.7695 9.75781 19.7695ZM14.2461 22H13.0586L13.0664 21.3867H14.2461C14.6523 21.3867 14.9909 21.3021 15.2617 21.1328C15.5326 20.9609 15.7357 20.7214 15.8711 20.4141C16.0091 20.1042 16.0781 19.7422 16.0781 19.3281V18.9805C16.0781 18.6549 16.0391 18.3659 15.9609 18.1133C15.8828 17.8581 15.7682 17.6432 15.6172 17.4688C15.4661 17.2917 15.2812 17.1576 15.0625 17.0664C14.8464 16.9753 14.5977 16.9297 14.3164 16.9297H13.0352V16.3125H14.3164C14.6888 16.3125 15.0286 16.375 15.3359 16.5C15.6432 16.6224 15.9076 16.8008 16.1289 17.0352C16.3529 17.2669 16.5247 17.5482 16.6445 17.8789C16.7643 18.207 16.8242 18.5768 16.8242 18.9883V19.3281C16.8242 19.7396 16.7643 20.1107 16.6445 20.4414C16.5247 20.7695 16.3516 21.0495 16.125 21.2812C15.901 21.513 15.6302 21.6914 15.3125 21.8164C14.9974 21.9388 14.6419 22 14.2461 22ZM13.4609 16.3125V22H12.707V16.3125H13.4609ZM18.7109 16.3125V22H17.957V16.3125H18.7109ZM21.0938 18.8711V19.4883H18.5469V18.8711H21.0938ZM21.4805 16.3125V16.9297H18.5469V16.3125H21.4805Z" fill="black"/>
</svg>
