<svg width="16" height="16" viewBox="0 0 16 16" fill="none" xmlns="http://www.w3.org/2000/svg">
<g id="pin">
<path id="Vector" d="M9.34611 3.90862L8.80095 4.09033L9.34611 3.90861L9.04227 2.99711L9.31763 2.72176L13.2782 6.68237L13.0029 6.95773L12.0914 6.65389C11.7658 6.54536 11.4069 6.6301 11.1642 6.87277L8.98301 9.05395C8.81309 9.22387 8.71763 9.45433 8.71763 9.69463V12.2048L7.87489 13.0476L6.11099 11.2837C5.75716 10.9298 5.18348 10.9298 4.82964 11.2837L3.19124 12.9221L2.96464 13.0354L3.07794 12.8088L4.71634 11.1704C5.07018 10.8165 5.07017 10.2428 4.71634 9.88901L2.95244 8.12511L3.79519 7.28237L6.30537 7.28237C6.54567 7.28237 6.77613 7.18691 6.94605 7.01699L9.12723 4.83581C9.3699 4.59314 9.45464 4.23419 9.34611 3.90862ZM9.10978 2.51391L9.11003 2.51416C9.10995 2.51407 9.10986 2.51399 9.10978 2.51391L9.31763 2.30606L9.10978 2.51391ZM2.57028 13.8241L2.57046 13.8237C2.5704 13.8238 2.57034 13.824 2.57028 13.8241L2.30736 13.6926L2.57028 13.8241ZM2.74459 7.91726C2.74467 7.91734 2.74474 7.91741 2.74482 7.91749L2.74459 7.91726L2.53675 8.12511L2.74459 7.91726Z" stroke="#4F4F4F" stroke-width="1.2"/>
</g>
</svg>
