<svg width="29" height="38" viewBox="0 0 29 38" fill="none" xmlns="http://www.w3.org/2000/svg">
<path d="M16.6786 1.10874L16.6787 1.10881L27.8934 12.5384L27.8935 12.5384C28.1522 12.802 28.2999 13.1623 28.3 13.5407C28.3 13.5407 28.3 13.5408 28.3 13.5408V33.7778C28.3 34.7162 27.9341 35.6135 27.2869 36.2731C26.6402 36.9322 25.7659 37.3 24.8571 37.3H4.14286C3.23409 37.3 2.35979 36.9322 1.71306 36.2731C1.06589 35.6135 0.7 34.7162 0.7 33.7778V4.22222C0.7 3.28383 1.06589 2.38648 1.71306 1.72692C2.35979 1.0678 3.23409 0.7 4.14286 0.7H15.7137C15.7138 0.7 15.7138 0.7 15.7139 0.7C16.0732 0.700119 16.4205 0.845547 16.6786 1.10874Z" stroke="black" stroke-width="1.4" stroke-linecap="round" stroke-linejoin="round"/>
<path d="M8.75781 19.7695H7.23828V19.1562H8.75781C9.05208 19.1562 9.29036 19.1094 9.47266 19.0156C9.65495 18.9219 9.78776 18.7917 9.87109 18.625C9.95703 18.4583 10 18.2682 10 18.0547C10 17.8594 9.95703 17.6758 9.87109 17.5039C9.78776 17.332 9.65495 17.194 9.47266 17.0898C9.29036 16.9831 9.05208 16.9297 8.75781 16.9297H7.41406V22H6.66016V16.3125H8.75781C9.1875 16.3125 9.55078 16.3867 9.84766 16.5352C10.1445 16.6836 10.3698 16.8893 10.5234 17.1523C10.6771 17.4128 10.7539 17.7109 10.7539 18.0469C10.7539 18.4115 10.6771 18.7227 10.5234 18.9805C10.3698 19.2383 10.1445 19.4349 9.84766 19.5703C9.55078 19.7031 9.1875 19.7695 8.75781 19.7695ZM16.082 16.3125V22H15.3242L12.4609 17.6133V22H11.707V16.3125H12.4609L15.3359 20.7109V16.3125H16.082ZM21.6211 19.168V21.25C21.5508 21.3542 21.4388 21.4714 21.2852 21.6016C21.1315 21.7292 20.9193 21.8411 20.6484 21.9375C20.3802 22.0312 20.0339 22.0781 19.6094 22.0781C19.263 22.0781 18.944 22.0182 18.6523 21.8984C18.3633 21.776 18.112 21.599 17.8984 21.3672C17.6875 21.1328 17.5234 20.849 17.4062 20.5156C17.2917 20.1797 17.2344 19.7995 17.2344 19.375V18.9336C17.2344 18.5091 17.2839 18.1302 17.3828 17.7969C17.4844 17.4635 17.6328 17.181 17.8281 16.9492C18.0234 16.7148 18.263 16.5378 18.5469 16.418C18.8307 16.2956 19.1562 16.2344 19.5234 16.2344C19.9583 16.2344 20.3216 16.3099 20.6133 16.4609C20.9076 16.6094 21.1367 16.8151 21.3008 17.0781C21.4674 17.3411 21.5742 17.6406 21.6211 17.9766H20.8672C20.8333 17.7708 20.7656 17.5833 20.6641 17.4141C20.5651 17.2448 20.4232 17.1094 20.2383 17.0078C20.0534 16.9036 19.8151 16.8516 19.5234 16.8516C19.2604 16.8516 19.0326 16.8997 18.8398 16.9961C18.6471 17.0924 18.4883 17.2305 18.3633 17.4102C18.2383 17.5898 18.1445 17.8073 18.082 18.0625C18.0221 18.3177 17.9922 18.6055 17.9922 18.9258V19.375C17.9922 19.7031 18.0299 19.9961 18.1055 20.2539C18.1836 20.5117 18.2943 20.7318 18.4375 20.9141C18.5807 21.0938 18.7513 21.2305 18.9492 21.3242C19.1497 21.418 19.3711 21.4648 19.6133 21.4648C19.8815 21.4648 20.099 21.4427 20.2656 21.3984C20.4323 21.3516 20.5625 21.2969 20.6562 21.2344C20.75 21.1693 20.8216 21.1081 20.8711 21.0508V19.7773H19.5547V19.168H21.6211Z" fill="black"/>
</svg>
