<svg width="173" height="173" viewBox="0 0 173 173" fill="none" xmlns="http://www.w3.org/2000/svg">
<path d="M86.3696 0.0449219C39.5487 0.0449219 0 39.5936 0 86.4146C0 133.236 39.5487 172.784 86.3696 172.784C133.191 172.784 172.739 133.236 172.739 86.4146C172.739 39.5936 133.191 0.0449219 86.3696 0.0449219ZM86.3696 43.2297C101.286 43.2297 112.281 54.216 112.281 69.1406C112.281 84.0653 101.286 95.0515 86.3696 95.0515C71.4622 95.0515 60.4587 84.0653 60.4587 69.1406C60.4587 54.216 71.4622 43.2297 86.3696 43.2297ZM42.2693 127.63C50.0167 116.229 62.9376 108.629 77.7327 108.629H95.0066C109.81 108.629 122.723 116.229 130.47 127.63C119.432 139.446 103.773 146.873 86.3696 146.873C68.9662 146.873 53.3073 139.446 42.2693 127.63Z" fill="#277044"/>
</svg>
