<svg width="19" height="18" viewBox="0 0 19 18" fill="none" xmlns="http://www.w3.org/2000/svg">
<g id="Forward">
<path id="Arrow 1 (Stroke)" d="M10.7071 9.68099V9.08099H10.1071C6.66092 9.08099 4.58532 10.0178 3.3479 11.1356C3.46413 10.7385 3.60724 10.3276 3.78336 9.91797C4.24721 8.83902 4.93013 7.79106 5.93238 7.01396C6.92619 6.24341 8.2683 5.71198 10.1071 5.71198H10.7071V5.11198V5.10973V5.10745V5.10515V5.10281V5.10044V5.09804V5.09561V5.09315V5.09066V5.08815V5.0856V5.08302V5.08041V5.07778V5.07511V5.07242V5.0697V5.06695V5.06417V5.06136V5.05852V5.05566V5.05277V5.04985V5.0469V5.04393V5.04093V5.0379V5.03484V5.03176V5.02865V5.02551V5.02235V5.01916V5.01595V5.0127V5.00944V5.00614V5.00283V4.99948V4.99611V4.99272V4.9893V4.98585V4.98238V4.97889V4.97537V4.97182V4.96825V4.96466V4.96105V4.95741V4.95374V4.95005V4.94634V4.94261V4.93885V4.93507V4.93127V4.92744V4.92359V4.91972V4.91583V4.91191V4.90797V4.90401V4.90003V4.89603V4.892V4.88796V4.88389V4.8798V4.87569V4.87156V4.86741V4.86324V4.85904V4.85483V4.8506V4.84634V4.84207V4.83778V4.83347V4.82914V4.82478V4.82041V4.81602V4.81162V4.80719V4.80274V4.79828V4.7938V4.7893V4.78478V4.78024V4.77569V4.77111V4.76652V4.76192V4.75729V4.75265V4.74799V4.74332V4.73862V4.73392V4.72919V4.72445V4.71969V4.71492V4.71013V4.70532V4.7005V4.69566V4.69081V4.68595V4.68106V4.67617V4.67125V4.66633V4.66139V4.65643V4.65146V4.64648V4.64148V4.63647V4.63144V4.6264V4.62135V4.61629V4.61121V4.60612V4.60101V4.59589V4.59076V4.58562V4.58047V4.5753V4.57012V4.56493V4.55973V4.55452V4.54929V4.54405V4.5388V4.53355V4.52828V4.52299V4.5177V4.5124V4.50709V4.50177V4.49643V4.49109V4.48574V4.48037V4.475V4.46962V4.46423V4.45883V4.45342V4.44801V4.44258V4.43714V4.4317V4.42625V4.42079V4.41532V4.40985V4.40436V4.39887V4.39337V4.38787V4.38235V4.37683V4.3713V4.36577V4.36023V4.35468V4.34913V4.34357V4.338V4.33243V4.32685V4.32127V4.31568V4.31009V4.30449V4.29888V4.29327V4.28766V4.28204V4.27641V4.27078V4.26515V4.25951V4.25387V4.24823V4.24258V4.23693V4.23127V4.22561V4.21995V4.21428V4.20861V4.20294V4.19727V4.19159V4.18591V4.18023V4.17455V4.16886V4.16318V4.15749V4.1518V4.1461V4.14041V4.13472V4.12902V4.12333V4.11763V4.11193V4.10623V4.10053V4.09484V4.08914V4.08344V4.07774V4.07386L16.1054 7.39653L10.7071 10.7192V10.7153V10.7096V10.7039V10.6982V10.6925V10.6868V10.6811V10.6754V10.6697V10.664V10.6583V10.6526V10.6469V10.6412V10.6355V10.6298V10.6241V10.6185V10.6128V10.6071V10.6014V10.5957V10.5901V10.5844V10.5787V10.5731V10.5674V10.5617V10.5561V10.5504V10.5448V10.5391V10.5335V10.5278V10.5222V10.5166V10.511V10.5053V10.4997V10.4941V10.4885V10.4829V10.4773V10.4717V10.4661V10.4606V10.455V10.4494V10.4439V10.4383V10.4328V10.4272V10.4217V10.4162V10.4106V10.4051V10.3996V10.3941V10.3886V10.3831V10.3777V10.3722V10.3667V10.3613V10.3558V10.3504V10.345V10.3396V10.3342V10.3288V10.3234V10.318V10.3126V10.3073V10.3019V10.2966V10.2912V10.2859V10.2806V10.2753V10.27V10.2647V10.2594V10.2542V10.2489V10.2437V10.2385V10.2333V10.2281V10.2229V10.2177V10.2125V10.2074V10.2022V10.1971V10.192V10.1869V10.1818V10.1767V10.1716V10.1666V10.1615V10.1565V10.1515V10.1465V10.1415V10.1365V10.1316V10.1267V10.1217V10.1168V10.1119V10.107V10.1022V10.0973V10.0925V10.0877V10.0829V10.0781V10.0733V10.0685V10.0638V10.0591V10.0544V10.0497V10.045V10.0403V10.0357V10.0311V10.0265V10.0219V10.0173V10.0127V10.0082V10.0037V9.99918V9.9947V9.99023V9.98579V9.98136V9.97695V9.97256V9.96819V9.96384V9.95951V9.95519V9.9509V9.94663V9.94238V9.93814V9.93393V9.92974V9.92556V9.92141V9.91728V9.91317V9.90908V9.90501V9.90097V9.89694V9.89294V9.88896V9.885V9.88106V9.87714V9.87325V9.86938V9.86553V9.8617V9.8579V9.85412V9.85036V9.84663V9.84292V9.83923V9.83556V9.83192V9.82831V9.82471V9.82115V9.8176V9.81408V9.81059V9.80712V9.80367V9.80025V9.79686V9.79349V9.79014V9.78682V9.78353V9.78026V9.77702V9.77381V9.77062V9.76745V9.76432V9.76121V9.75813V9.75507V9.75204V9.74904V9.74606V9.74312V9.7402V9.73731V9.73444V9.73161V9.7288V9.72602V9.72327V9.72055V9.71785V9.71519V9.71255V9.70995V9.70737V9.70482V9.7023V9.69981V9.69735V9.69493V9.69253V9.69016V9.68782V9.68551V9.68324V9.68099Z" stroke="#4F4F4F" stroke-width="1.2"/>
</g>
</svg>
