<svg width="18" height="18" viewBox="0 0 18 18" fill="none" xmlns="http://www.w3.org/2000/svg">
<g id="paper-airplane">
<g id="Group 1152">
<path id="Vector 12 (Stroke)" fill-rule="evenodd" clip-rule="evenodd" d="M6.60345 3.48941L14.0198 7.73498C14.5191 8.00893 14.8125 8.47691 14.8125 8.9864C14.8125 9.49589 14.5192 9.96386 14.0198 10.2378L6.60907 14.4802C5.686 15.0714 4.5 14.5064 4.5 13.4864L4.5 11.4614C4.5 11.2129 4.70147 11.0114 4.95 11.0114C5.19853 11.0114 5.4 11.2129 5.4 11.4614L5.4 13.4864C5.4 13.6804 5.70371 13.9965 6.12896 13.7188L6.13999 13.7116L13.5805 9.4522L13.5847 9.44994C13.8326 9.31486 13.9125 9.12975 13.9125 8.9864C13.9125 8.84305 13.8326 8.65793 13.5847 8.52283L13.5805 8.52057L6.14606 4.26461L6.14077 4.26138C5.97815 4.16225 5.77751 4.15924 5.61643 4.22904C5.45245 4.3001 5.4 4.40757 5.4 4.48639L5.4 7.48636C5.4 7.48638 5.4 7.48639 4.95 7.48639C4.5 7.48639 4.5 7.48638 4.5 7.48636L4.5 4.48639C4.5 3.95597 4.86005 3.57594 5.25858 3.40324C5.65822 3.23006 6.16734 3.22631 6.60345 3.48941ZM4.95 7.48639L4.5 7.48636C4.5 8.39373 5.28562 9.28638 6.29999 9.28639L8.55 9.28639C8.79853 9.28639 9 9.08492 9 8.83639C9 8.58786 8.79853 8.38639 8.55 8.38639L6.30001 8.38639C5.81438 8.38638 5.4 7.92898 5.4 7.48636L4.95 7.48639Z" fill="#141414"/>
<path id="Polygon 11" d="M10.9343 8.61994C11.1547 8.74927 11.1547 9.0726 10.9343 9.20194L7.54553 11.1904C7.32512 11.3198 7.04961 11.1581 7.04961 10.8994L7.04961 6.92245C7.04961 6.66379 7.32512 6.50212 7.54553 6.63146L10.9343 8.61994Z" fill="#141414"/>
</g>
</g>
</svg>
