<svg width="15" height="16" viewBox="0 0 15 16" fill="none" xmlns="http://www.w3.org/2000/svg">
<path d="M5.79117 0.00131137C5.63649 -0.00920936 5.48408 0.0438975 5.36747 0.148949C5.25086 0.254001 5.1796 0.402392 5.16937 0.561478C5.15914 0.720564 5.21078 0.877314 5.31292 0.997244C5.41506 1.11717 5.55935 1.19046 5.71403 1.20098C9.79861 1.47746 13.065 4.83766 13.3323 9.03851C13.3373 9.11728 13.3574 9.19427 13.3913 9.26507C13.4252 9.33587 13.4724 9.3991 13.5301 9.45116C13.5878 9.50321 13.6549 9.54306 13.7276 9.56844C13.8003 9.59382 13.8771 9.60423 13.9537 9.59908C14.0303 9.59392 14.1051 9.5733 14.174 9.53839C14.2428 9.50348 14.3043 9.45497 14.3549 9.39562C14.4055 9.33628 14.4443 9.26726 14.469 9.19251C14.4936 9.11776 14.5038 9.03874 14.4988 8.95997C14.1925 4.15568 10.4601 0.317056 5.79117 0.00131137ZM4.77665 10.8969C5.00914 10.8969 5.23211 10.8019 5.3965 10.6329C5.5609 10.4638 5.65325 10.2345 5.65325 9.99536C5.65325 9.75625 5.5609 9.52694 5.3965 9.35786C5.23211 9.18879 5.00914 9.0938 4.77665 9.0938C4.54416 9.0938 4.32119 9.18879 4.1568 9.35786C3.9924 9.52694 3.90005 9.75625 3.90005 9.99536C3.90005 10.2345 3.9924 10.4638 4.1568 10.6329C4.32119 10.8019 4.54416 10.8969 4.77665 10.8969ZM4.37147 15.8254L4.06758 15.5161C3.29605 14.7274 2.5249 13.9383 1.75413 13.1488C1.15526 12.5328 0.747448 11.748 0.58225 10.8937C0.417052 10.0393 0.501891 9.15376 0.826038 8.349C1.15019 7.54423 1.69908 6.85639 2.40332 6.37245C3.10757 5.88851 3.93552 5.63021 4.7825 5.63021C5.62947 5.63021 6.45742 5.88851 7.16167 6.37245C7.86591 6.85639 8.4148 7.54423 8.73895 8.349C9.0631 9.15376 9.14794 10.0393 8.98274 10.8937C8.81754 11.748 8.40973 12.5328 7.81086 13.1488C7.4649 13.5046 6.81037 14.1746 6.24311 14.754L5.1943 15.8254C5.08482 15.9372 4.93679 16 4.7825 16C4.6282 16 4.48016 15.9372 4.37069 15.8254H4.37147ZM2.58008 7.76992C1.9962 8.37047 1.66818 9.18496 1.66818 10.0342C1.66818 10.8835 1.9962 11.698 2.58008 12.2985C2.95566 12.6848 3.60863 13.3532 4.16887 13.9253L4.7821 14.552L5.41793 13.9013C5.98597 13.3211 6.63894 12.6535 6.98413 12.2985C7.56804 11.6979 7.89604 10.8833 7.89596 10.0339C7.89589 9.18459 7.56775 8.37005 6.98374 7.76952C6.39973 7.16899 5.60768 6.83165 4.78183 6.83173C3.95598 6.8318 3.16399 7.16928 2.58008 7.76992ZM5.80598 2.78772C5.6516 2.77337 5.49801 2.82269 5.37899 2.92481C5.25997 3.02693 5.18527 3.17349 5.17132 3.33226C5.15737 3.49103 5.20531 3.64899 5.30461 3.7714C5.4039 3.89381 5.54641 3.97064 5.70078 3.98499C6.96705 4.10449 8.1527 4.67608 9.05207 5.60061C9.95143 6.52513 10.5078 7.74426 10.6246 9.04652C10.6385 9.20529 10.7132 9.35186 10.8322 9.45398C10.9513 9.5561 11.1048 9.60541 11.2592 9.59106C11.4136 9.57672 11.5561 9.49989 11.6554 9.37748C11.7547 9.25507 11.8026 9.0971 11.7887 8.93834C11.6472 7.35564 10.9713 5.87387 9.8783 4.75031C8.78527 3.62675 7.34494 2.93236 5.80598 2.78772Z" fill="white"/>
</svg>
