<svg width="18" height="18" viewBox="0 0 18 18" fill="none" xmlns="http://www.w3.org/2000/svg">
<path id="sentiment_satisfied" d="M12.15 8.1C12.525 8.1 12.8438 7.96875 13.1062 7.70625C13.3687 7.44375 13.5 7.125 13.5 6.75C13.5 6.375 13.3687 6.05625 13.1062 5.79375C12.8438 5.53125 12.525 5.4 12.15 5.4C11.775 5.4 11.4563 5.53125 11.1937 5.79375C10.9312 6.05625 10.8 6.375 10.8 6.75C10.8 7.125 10.9312 7.44375 11.1937 7.70625C11.4563 7.96875 11.775 8.1 12.15 8.1ZM5.85 8.1C6.225 8.1 6.54375 7.96875 6.80625 7.70625C7.06875 7.44375 7.2 7.125 7.2 6.75C7.2 6.375 7.06875 6.05625 6.80625 5.79375C6.54375 5.53125 6.225 5.4 5.85 5.4C5.475 5.4 5.15625 5.53125 4.89375 5.79375C4.63125 6.05625 4.5 6.375 4.5 6.75C4.5 7.125 4.63125 7.44375 4.89375 7.70625C5.15625 7.96875 5.475 8.1 5.85 8.1ZM9 13.95C10.02 13.95 10.9462 13.6613 11.7788 13.0837C12.6112 12.5063 13.215 11.745 13.59 10.8H12.105C11.775 11.355 11.3363 11.7937 10.7887 12.1163C10.2413 12.4388 9.645 12.6 9 12.6C8.355 12.6 7.75875 12.4388 7.21125 12.1163C6.66375 11.7937 6.225 11.355 5.895 10.8H4.41C4.785 11.745 5.38875 12.5063 6.22125 13.0837C7.05375 13.6613 7.98 13.95 9 13.95ZM9 18C7.755 18 6.585 17.7638 5.49 17.2912C4.395 16.8187 3.4425 16.1775 2.6325 15.3675C1.8225 14.5575 1.18125 13.605 0.70875 12.51C0.23625 11.415 0 10.245 0 9C0 7.755 0.23625 6.585 0.70875 5.49C1.18125 4.395 1.8225 3.4425 2.6325 2.6325C3.4425 1.8225 4.395 1.18125 5.49 0.70875C6.585 0.23625 7.755 0 9 0C10.245 0 11.415 0.23625 12.51 0.70875C13.605 1.18125 14.5575 1.8225 15.3675 2.6325C16.1775 3.4425 16.8187 4.395 17.2912 5.49C17.7638 6.585 18 7.755 18 9C18 10.245 17.7638 11.415 17.2912 12.51C16.8187 13.605 16.1775 14.5575 15.3675 15.3675C14.5575 16.1775 13.605 16.8187 12.51 17.2912C11.415 17.7638 10.245 18 9 18ZM9 16.2C11.01 16.2 12.7125 15.5025 14.1075 14.1075C15.5025 12.7125 16.2 11.01 16.2 9C16.2 6.99 15.5025 5.2875 14.1075 3.8925C12.7125 2.4975 11.01 1.8 9 1.8C6.99 1.8 5.2875 2.4975 3.8925 3.8925C2.4975 5.2875 1.8 6.99 1.8 9C1.8 11.01 2.4975 12.7125 3.8925 14.1075C5.2875 15.5025 6.99 16.2 9 16.2Z" fill="#4F4F4F"/>
</svg>
