<svg width="18" height="18" viewBox="0 0 18 18" fill="none" xmlns="http://www.w3.org/2000/svg">
<path id="smiley" fill-rule="evenodd" clip-rule="evenodd" d="M0 9C0 4.02944 4.02944 0 9 0C11.3869 0 13.6761 0.948212 15.364 2.63604C17.0518 4.32387 18 6.61305 18 9C18 13.9706 13.9706 18 9 18C4.02944 18 0 13.9706 0 9ZM13.3913 7.17574C13.3913 6.41114 12.7714 5.79131 12.0068 5.79131C11.2422 5.79131 10.6224 6.41114 10.6224 7.17574C10.6224 7.94034 11.2422 8.56017 12.0068 8.56017C12.7714 8.56017 13.3913 7.94034 13.3913 7.17574ZM5.99271 5.79131C6.7568 5.79131 7.37642 6.41035 7.37713 7.17444C7.37785 7.93853 6.7594 8.55873 5.99531 8.56017C5.23122 8.56161 4.61044 7.94374 4.60828 7.17965C4.60724 6.81167 4.75275 6.4584 5.01266 6.1979C5.27239 5.93759 5.62501 5.7913 5.99271 5.79131ZM3.70868 10.9424C4.53007 13.156 6.63882 14.6276 8.99988 14.6348C11.3609 14.6276 13.4697 13.156 14.2911 10.9424L13.1774 10.5316C12.5338 12.2831 10.8659 13.4471 8.99988 13.4471C7.13386 13.4471 5.46596 12.2831 4.82233 10.5316L3.70868 10.9424Z" fill="#4F4F4F"/>
</svg>
