<svg width="14" height="14" viewBox="0 0 14 14" fill="none" xmlns="http://www.w3.org/2000/svg">
<g id="Group 35780">
<path id="Subtract" d="M2.14378 4.1844L2.27768 4.45286L10.0578 0.572183C11.2806 -0.0377163 12.7841 0.413802 13.4174 1.55527C14.0451 2.68676 13.5939 4.09659 12.3793 4.7024L11.8679 4.95751L11.3662 5.20773L11.8527 5.48631C12.2269 5.70058 12.5439 6.0099 12.7604 6.40002C13.3881 7.53151 12.9369 8.94134 11.7223 9.54715L3.94215 13.4278C2.71937 14.0377 1.2159 13.5862 0.58264 12.4447L0.320306 12.5903L0.582639 12.4447C-0.045101 11.3132 0.406118 9.90341 1.62067 9.29761L1.62068 9.29761L2.13214 9.04248L2.63378 8.79225L2.1473 8.51368C1.77311 8.29941 1.4561 7.99009 1.23965 7.59997C0.611907 6.46848 1.06313 5.05866 2.27768 4.45286L2.14378 4.1844Z" fill="url(#paint0_linear_13938_31387)" stroke="#999999" stroke-width="0.6"/>
<path id="Vector" d="M3.67143 4.52886L11.0158 5.53113C12.1447 5.68519 12.9145 6.70339 12.7488 7.79519L12.7486 7.79608C12.5829 8.88788 11.5416 9.65893 10.4127 9.50487L3.06826 8.5026C1.93934 8.34854 1.16962 7.33035 1.33534 6.23854L1.33547 6.23765C1.5012 5.14585 2.54251 4.3748 3.67143 4.52886Z" stroke="#999999" stroke-width="0.6"/>
</g>
<defs>
<linearGradient id="paint0_linear_13938_31387" x1="0" y1="7" x2="14" y2="7" gradientUnits="userSpaceOnUse">
<stop stop-color="#CBCBCB"/>
<stop offset="1" stop-color="#CBCBCB" stop-opacity="0"/>
</linearGradient>
</defs>
</svg>
