<svg width="24" height="24" viewBox="0 0 24 24" fill="none" xmlns="http://www.w3.org/2000/svg">
<g id="video">
<g id="video_2">
<path id="Path_1190" d="M19.6511 6.34803C19.5801 6.31805 19.5044 6.30211 19.4279 6.30099C19.2765 6.29776 19.131 6.36255 19.028 6.47907L15.4282 10.2482V8.70004C15.4256 7.21015 14.276 6.00304 12.8572 6.00026H6.57126C5.88761 5.99003 5.23027 6.27665 4.7546 6.79239C4.26346 7.29188 3.99051 7.98215 4.00025 8.70004V15.3C3.99051 16.0179 4.26346 16.7081 4.7546 17.2076C5.23027 17.7233 5.88761 18.01 6.57126 17.9997H12.8564C14.2752 17.997 15.4248 16.7899 15.4274 15.3V13.7476L19.0272 17.5277C19.1302 17.6442 19.2757 17.709 19.4271 17.7057C19.5036 17.7046 19.5793 17.6886 19.6503 17.6587C19.8711 17.5736 20.0128 17.3467 19.9991 17.1001V6.90327C20.0115 6.65812 19.8704 6.43307 19.6511 6.34803Z" stroke="#333333" stroke-width="1.5"/>
</g>
</g>
</svg>
