<svg width="15" height="11" viewBox="0 0 15 11" fill="none" xmlns="http://www.w3.org/2000/svg">
<g id="Wifi">
<path id="Wifi_2" fill-rule="evenodd" clip-rule="evenodd" d="M7.39188 2.58624C8.84279 2.5863 10.2382 3.13262 11.2898 4.11229C11.3689 4.18792 11.4955 4.18696 11.5735 4.11015L12.3304 3.36156C12.3699 3.3226 12.3919 3.26982 12.3916 3.21491C12.3913 3.16 12.3686 3.10748 12.3287 3.06897C9.56873 0.47701 5.21459 0.47701 2.45464 3.06897C2.41466 3.10745 2.39197 3.15995 2.39161 3.21486C2.39124 3.26978 2.41321 3.32257 2.45267 3.36156L3.20981 4.11015C3.28775 4.18708 3.41442 4.18804 3.49355 4.11229C4.54522 3.13256 5.94082 2.58623 7.39188 2.58624ZM7.39104 5.0168C8.18912 5.01675 8.95873 5.31453 9.55031 5.85229C9.63033 5.92861 9.75637 5.92695 9.83437 5.84856L10.5913 5.08085C10.6311 5.04058 10.6532 4.98595 10.6527 4.92918C10.6521 4.87242 10.6289 4.81825 10.5882 4.7788C8.78672 3.0966 5.99689 3.0966 4.1954 4.7788C4.1547 4.81825 4.13149 4.87244 4.13095 4.92923C4.13042 4.98601 4.15261 5.04063 4.19256 5.08085L4.94924 5.84856C5.02724 5.92695 5.15328 5.92861 5.2333 5.85229C5.82449 5.31489 6.59348 5.01713 7.39104 5.0168ZM8.91309 6.79305C8.91425 6.84878 8.89188 6.90251 8.85125 6.94156L7.53727 8.24012C7.49876 8.27828 7.44624 8.29976 7.39145 8.29976C7.33665 8.29976 7.28414 8.27828 7.24562 8.24012L5.93142 6.94156C5.89083 6.90248 5.86849 6.84874 5.8697 6.793C5.8709 6.73727 5.89553 6.6845 5.93778 6.64714C6.77694 5.95209 8.00596 5.95209 8.84511 6.64714C8.88733 6.68453 8.91192 6.73732 8.91309 6.79305Z" fill="#333333"/>
</g>
</svg>
