<svg width="32" height="32" viewBox="0 0 32 32" fill="none" xmlns="http://www.w3.org/2000/svg">
<g id="attach">
<circle id="Ellipse_2759" cx="16" cy="16" r="16" fill="#81C14B"/>
<g id="Vector">
<path fill-rule="evenodd" clip-rule="evenodd" d="M12.8556 8.29116L22.9238 14.2295C23.6018 14.6127 24 15.2673 24 15.9799C24 16.6926 23.6018 17.3471 22.9238 17.7303L12.8632 23.6642C11.6101 24.4912 10 23.7009 10 22.2742V19.4418C10 19.0942 10.2735 18.8124 10.6109 18.8124C10.9483 18.8124 11.2218 19.0942 11.2218 19.4418V22.2742C11.2218 22.5456 11.6341 22.9877 12.2114 22.5993L12.2264 22.5892L22.3275 16.6315L22.3331 16.6283C22.6697 16.4394 22.7782 16.1804 22.7782 15.9799C22.7782 15.7794 22.6697 15.5205 22.3331 15.3315L22.3275 15.3284L12.2346 9.37545L12.2275 9.37094C12.0067 9.23228 11.7343 9.22806 11.5156 9.3257C11.293 9.42509 11.2218 9.57541 11.2218 9.68566V13.8818C11.2218 13.8818 11.2218 13.8818 10.6109 13.8818C10 13.8818 10 13.8818 10 13.8818V9.68566C10 8.94375 10.4888 8.41219 11.0298 8.17063C11.5724 7.9284 12.2635 7.92315 12.8556 8.29116ZM10.6109 13.8818L10 13.8818C10 15.1509 11.0665 16.3995 12.4436 16.3995H15.4982C15.8356 16.3995 16.1091 16.1177 16.1091 15.7701C16.1091 15.4225 15.8356 15.1407 15.4982 15.1407H12.4436C11.7844 15.1407 11.2218 14.5009 11.2218 13.8818L10.6109 13.8818Z" fill="white"/>
<path d="M18.7356 15.4674C19.0348 15.6483 19.0348 16.1005 18.7356 16.2814L14.1351 19.0627C13.8358 19.2436 13.4618 19.0175 13.4618 18.6557V13.093C13.4618 12.7312 13.8358 12.5051 14.1351 12.686L18.7356 15.4674Z" fill="white"/>
</g>
</g>
</svg>
