<svg width="12" height="13" viewBox="0 0 12 13" fill="none" xmlns="http://www.w3.org/2000/svg">
<g id="Frame">
<path id="Vector" d="M6 2.677C6.26872 2.37235 6.62384 2.15675 7.01811 2.0589C7.41237 1.96104 7.82709 1.98556 8.20708 2.1292C8.58706 2.27284 8.9143 2.52879 9.14524 2.86298C9.37619 3.19717 9.49989 3.59377 9.49989 4C9.49989 4.40623 9.37619 4.80283 9.14524 5.13702C8.9143 5.47122 8.58706 5.72716 8.20708 5.8708C7.82709 6.01444 7.41237 6.03896 7.01811 5.9411C6.62384 5.84325 6.26872 5.62765 6 5.323M7.5 11H1.5V10.5C1.5 9.70435 1.81607 8.94129 2.37868 8.37868C2.94129 7.81607 3.70435 7.5 4.5 7.5C5.29565 7.5 6.05871 7.81607 6.62132 8.37868C7.18393 8.94129 7.5 9.70435 7.5 10.5V11ZM7.5 11H10.5V10.5C10.5001 9.97335 10.3615 9.45597 10.0982 8.99985C9.83496 8.54373 9.45625 8.16496 9.00018 7.90161C8.54411 7.63825 8.02675 7.49959 7.50011 7.49958C6.97346 7.49956 6.45609 7.63818 6 7.9015M6.5 4C6.5 4.53043 6.28929 5.03914 5.91421 5.41421C5.53914 5.78929 5.03043 6 4.5 6C3.96957 6 3.46086 5.78929 3.08579 5.41421C2.71071 5.03914 2.5 4.53043 2.5 4C2.5 3.46957 2.71071 2.96086 3.08579 2.58579C3.46086 2.21071 3.96957 2 4.5 2C5.03043 2 5.53914 2.21071 5.91421 2.58579C6.28929 2.96086 6.5 3.46957 6.5 4Z" stroke="#555555" stroke-width="1.3" stroke-linecap="round" stroke-linejoin="round"/>
</g>
</svg>
