<svg width="16" height="16" viewBox="0 0 16 16" fill="none" xmlns="http://www.w3.org/2000/svg">
<path d="M15.9921 12.6294C16.0283 12.8811 15.9386 13.1345 15.7521 13.3073L13.5026 15.5413C13.3894 15.6627 13.2535 15.7606 13.1026 15.8295C12.9514 15.9048 12.7895 15.9564 12.6226 15.9824C12.6114 15.9824 12.5775 15.9853 12.521 15.9912C12.4645 15.9971 12.3911 16 12.301 16C11.9523 15.9865 11.6048 15.9496 11.261 15.8895C10.6552 15.7778 10.0646 15.5957 9.50106 15.3468C8.67553 14.9875 7.88452 14.5535 7.13791 14.0501C6.11859 13.3607 5.17425 12.5664 4.32037 11.68C3.60664 10.9881 2.94961 10.24 2.35561 9.44282C1.89083 8.81639 1.47265 8.15665 1.10444 7.46894C0.821302 6.94193 0.583128 6.39195 0.392451 5.82485C0.254082 5.40978 0.147116 4.98488 0.0724575 4.55375C0.0204202 4.27725 -0.00370055 3.99622 0.000458991 3.7149C0.013792 3.51158 0.0204586 3.39819 0.0204586 3.37471C0.046468 3.20773 0.0980033 3.04574 0.173255 2.89445C0.242202 2.7435 0.340043 2.60753 0.461249 2.49423L2.7132 0.240199C2.85309 0.0886303 3.0494 0.00171443 3.25559 6.77157e-05C3.39598 -0.00198748 3.53305 0.0427912 3.64518 0.127337C3.75944 0.21355 3.85703 0.319878 3.93317 0.441108L5.74514 3.88299C5.84674 4.06306 5.87701 4.27476 5.82993 4.47611C5.78979 4.68156 5.68955 4.87045 5.54194 5.01881L4.71236 5.85046C4.68461 5.88238 4.66438 5.92013 4.65316 5.96092C4.63805 6.00175 4.62941 6.04469 4.62756 6.08819C4.69 6.37239 4.79263 6.64623 4.93235 6.90143C5.11483 7.24794 5.32427 7.57954 5.55874 7.89318C5.92121 8.37432 6.32255 8.82488 6.75871 9.24031C7.17694 9.68027 7.63015 10.0856 8.11388 10.4522C8.42786 10.6886 8.75919 10.9011 9.10506 11.0877C9.29721 11.1948 9.502 11.2773 9.71465 11.3335L9.92665 11.3759C9.96447 11.3726 10.0016 11.364 10.037 11.3503C10.0778 11.339 10.1155 11.3188 10.1474 11.291L11.113 10.3081C11.3073 10.131 11.5614 10.034 11.8242 10.0367C11.9831 10.0289 12.1412 10.064 12.2818 10.1384H12.2986L15.5673 12.0707C15.7825 12.1872 15.9373 12.3907 15.9921 12.6294Z" fill="black"/>
</svg>
