<svg width="30" height="30" viewBox="0 0 30 30" fill="none" xmlns="http://www.w3.org/2000/svg">
<g id="speakerphone">
<path id="Vector" d="M13.7503 7.3525V24.05C13.75 24.5681 13.5668 25.0694 13.233 25.4657C12.8993 25.8619 12.4364 26.1277 11.9259 26.2161C11.4154 26.3046 10.8901 26.21 10.4425 25.9491C9.99488 25.6883 9.65371 25.2778 9.47907 24.79L6.79532 17.1025M6.79532 17.1025C5.73435 16.6514 4.86181 15.8488 4.32536 14.8283C3.78892 13.8078 3.62152 12.6334 3.85149 11.5036C4.08147 10.3739 4.69469 9.35832 5.58739 8.62875C6.48009 7.89918 7.59743 7.50044 8.75032 7.5H11.0403C16.1653 7.5 20.5716 5.9575 22.5003 3.75V21.25C20.5716 19.0425 16.1666 17.5 11.0403 17.5H8.75032C8.07862 17.501 7.41364 17.3649 6.79532 17.1025ZM22.5003 16.25C23.4949 16.25 24.4487 15.8549 25.152 15.1517C25.8552 14.4484 26.2503 13.4946 26.2503 12.5C26.2503 11.5054 25.8552 10.5516 25.152 9.84835C24.4487 9.14509 23.4949 8.75 22.5003 8.75V16.25Z" stroke="#999999" stroke-width="2" stroke-linecap="round" stroke-linejoin="round"/>
</g>
</svg>
