<svg width="22" height="16" viewBox="0 0 22 16" fill="none" xmlns="http://www.w3.org/2000/svg">
<path d="M2.44444 16C1.77222 16 1.19676 15.7762 0.718056 15.3286C0.239352 14.881 0 14.3429 0 13.7143V2.28571C0 1.65714 0.239352 1.11905 0.718056 0.671429C1.19676 0.22381 1.77222 0 2.44444 0H14.6667C15.3389 0 15.9144 0.22381 16.3931 0.671429C16.8718 1.11905 17.1111 1.65714 17.1111 2.28571V6.28571L21.1585 2.50114C21.478 2.20239 22 2.42894 22 2.86635V13.1336C22 13.5711 21.478 13.7976 21.1585 13.4989L17.1111 9.71429V13.7143C17.1111 14.3429 16.8718 14.881 16.3931 15.3286C15.9144 15.7762 15.3389 16 14.6667 16H2.44444Z" fill="black"/>
</svg>
